<svg preserveAspectRatio="none" width="100%" height="100%" overflow="visible" style="display: block;" viewBox="0 0 31.4511 9.77441" fill="none" xmlns="http://www.w3.org/2000/svg">
<g id="text4198-8">
<path id="path6801" d="M4.02199 5.60022L4.2725 4.20679L7.87182 4.85379L7.27953 8.14849C6.86889 8.4241 6.30851 8.63104 5.59838 8.7693C4.88823 8.90763 4.19279 8.91557 3.51204 8.79342C2.647 8.63788 1.92554 8.32087 1.34765 7.84231C0.769756 7.36374 0.379772 6.75779 0.177689 6.02455C-0.0243958 5.29131 -0.0541095 4.52786 0.0885549 3.7343C0.243387 2.87304 0.56151 2.14016 1.04292 1.5356C1.52433 0.931033 2.14505 0.512609 2.90508 0.28037C3.48474 0.101153 4.16948 0.0826066 4.9593 0.224324C5.98606 0.408889 6.74939 0.768424 7.2493 1.30282C7.74919 1.83727 8.0136 2.49919 8.04251 3.28871L6.32812 3.30105C6.28455 2.87394 6.1231 2.51394 5.84379 2.22105C5.56448 1.92816 5.18411 1.73845 4.70271 1.65191C3.97306 1.52076 3.35134 1.64542 2.83754 2.03301C2.32373 2.41818 1.98502 3.06582 1.8214 3.976C1.64493 4.95765 1.73072 5.73309 2.07877 6.30231C2.42681 6.87159 2.95437 7.21971 3.66145 7.34689C4.01122 7.4095 4.37428 7.40428 4.75062 7.32993C5.12695 7.25591 5.45869 7.14376 5.74584 6.99349L5.93449 5.94414L4.02199 5.60022Z" fill="var(--fill-0, black)"/>
<path id="path6803" d="M8.48357 5.29023C8.52322 4.43517 8.68435 3.72343 8.96701 3.15506C9.17769 2.73643 9.456 2.36489 9.80194 2.04043C10.1479 1.71604 10.5212 1.48087 10.922 1.33492C11.4553 1.13776 12.0635 1.05506 12.7468 1.08669C13.9836 1.14408 14.9554 1.57356 15.6623 2.37527C16.3692 3.17693 16.6909 4.26106 16.6276 5.62763C16.5647 6.98271 16.1472 8.02584 15.375 8.75706C14.6028 9.48827 13.6002 9.82533 12.3673 9.7682C11.119 9.71015 10.1442 9.28346 9.44278 8.48781C8.74136 7.6921 8.42162 6.62628 8.48357 5.29023ZM10.2326 5.31372C10.1885 6.2642 10.3746 6.99488 10.7909 7.50573C11.2071 8.01658 11.753 8.28765 12.4287 8.31896C13.1043 8.35026 13.6701 8.13263 14.1259 7.66607C14.5817 7.19944 14.8322 6.47941 14.8773 5.50598C14.9219 4.54409 14.7443 3.81667 14.3444 3.32376C13.9446 2.83091 13.3954 2.56826 12.6968 2.53585C11.9983 2.50324 11.4241 2.7169 10.9744 3.17616C10.5246 3.63536 10.2774 4.34791 10.2326 5.31372Z" fill="var(--fill-0, black)"/>
<path id="path6805" d="M17.1264 7.03801L18.7606 6.75467C18.9011 7.29982 19.1325 7.69061 19.4548 7.92702C19.7772 8.1635 20.1956 8.26243 20.71 8.22389C21.2549 8.1828 21.6569 8.03701 21.9159 7.78579C22.1749 7.53457 22.2928 7.25457 22.2697 6.9459C22.2549 6.74776 22.1841 6.58355 22.0575 6.45318C21.9309 6.32281 21.7189 6.21697 21.4216 6.13577C21.2183 6.08229 20.7576 5.99386 20.0395 5.87138C19.1157 5.71447 18.4586 5.48594 18.0683 5.18561C17.5193 4.76307 17.22 4.22024 17.1703 3.55717C17.1384 3.13039 17.2295 2.72211 17.4436 2.33243C17.6578 1.94276 17.9852 1.63374 18.4261 1.40528C18.8669 1.17683 19.4093 1.03853 20.0533 0.99027C21.105 0.911488 21.914 1.08278 22.4801 1.50408C23.0462 1.92532 23.3714 2.5198 23.4558 3.28761L21.7694 3.48862C21.6647 3.06341 21.4863 2.7654 21.234 2.59459C20.9817 2.42385 20.6174 2.35631 20.141 2.39198C19.6495 2.4285 19.2721 2.55866 19.0091 2.78144C18.8397 2.9244 18.7631 3.10451 18.7794 3.32168C18.7943 3.51988 18.8908 3.68313 19.069 3.81161C19.2958 3.97472 19.828 4.12264 20.6657 4.25536C21.5034 4.38801 22.1272 4.54339 22.5371 4.72156C22.9471 4.89974 23.277 5.16046 23.5269 5.5039C23.7768 5.84727 23.9216 6.28381 23.9612 6.8135C23.9972 7.29363 23.8975 7.75335 23.6622 8.19252C23.4268 8.63163 23.0729 8.97139 22.6004 9.21179C22.1279 9.45218 21.5277 9.59966 20.7999 9.65418C19.7405 9.73355 18.9086 9.54961 18.3041 9.10248C17.6997 8.65528 17.3071 7.96716 17.1264 7.03801Z" fill="var(--fill-0, black)"/>
<path id="path6807" d="M24.6411 6.44569L26.2328 5.97933C26.434 6.50505 26.7081 6.86725 27.0551 7.0657C27.4021 7.26416 27.829 7.31517 28.3358 7.21872C28.8726 7.11658 29.2555 6.92598 29.4844 6.64711C29.7134 6.36817 29.7989 6.07662 29.7411 5.77258C29.7039 5.57738 29.615 5.42217 29.4745 5.30693C29.3339 5.1917 29.1113 5.11057 28.8067 5.06348C28.5987 5.03283 28.1309 4.99762 27.4036 4.95712C26.468 4.9056 25.7893 4.75285 25.3675 4.49856C24.7743 4.14078 24.4155 3.63528 24.2912 2.98213C24.2112 2.56168 24.2555 2.14578 24.4242 1.73439C24.5929 1.323 24.8834 0.978918 25.2955 0.702071C25.7077 0.425288 26.231 0.226487 26.8654 0.105704C27.9015 -0.0914481 28.7246 -0.0127564 29.3347 0.341831C29.9448 0.696352 30.3352 1.25031 30.5058 2.00363L28.853 2.39404C28.7009 1.98344 28.4899 1.70746 28.2199 1.56633C27.9499 1.42513 27.5803 1.39927 27.1111 1.48855C26.6268 1.5807 26.2666 1.75239 26.0304 2.00347C25.8783 2.16469 25.8226 2.35227 25.8633 2.56624C25.9005 2.76144 26.0148 2.91279 26.2064 3.02027C26.4502 3.1567 26.9958 3.24349 27.8431 3.28059C28.6904 3.31777 29.3277 3.40155 29.7552 3.53224C30.1827 3.66287 30.54 3.88472 30.8271 4.19763C31.1142 4.51061 31.3074 4.92795 31.4067 5.44976C31.4968 5.92271 31.4497 6.39071 31.2655 6.85362C31.0813 7.3166 30.7681 7.69426 30.3258 7.98656C29.8835 8.2788 29.3039 8.49316 28.5869 8.62966C27.5433 8.82825 26.6959 8.73959 26.0447 8.36368C25.3936 7.9877 24.9257 7.34843 24.6411 6.44569Z" fill="var(--fill-0, black)"/>
</g>
</svg>
