<svg preserveAspectRatio="none" width="100%" height="100%" overflow="visible" style="display: block;" viewBox="0 0 51.1401 18.0961" fill="none" xmlns="http://www.w3.org/2000/svg">
<g id="g7503">
<g id="g4630">
<path id="path4350-4" d="M22.4113 7.16835C19.4233 7.39104 17.3823 7.99676 14.9761 8.72508C13.6762 9.11854 13.9193 11.1832 15.9985 10.6098C17.9186 10.0803 19.472 9.57831 21.75 9.44836C22.3148 9.41614 22.6213 9.80856 22.5869 10.2694L22.4113 7.16835Z" fill="var(--fill-0, white)"/>
<path id="path4350-4-3" d="M28.7287 7.16835C31.7167 7.39104 33.7577 7.99676 36.1639 8.72508C37.4638 9.11854 37.2208 11.1832 35.1416 10.6098C33.2214 10.0803 31.668 9.57831 29.39 9.44836C28.8252 9.41614 28.5187 9.80856 28.5532 10.2694L28.7287 7.16835Z" fill="var(--fill-0, white)"/>
<path id="path4188-1-2" d="M4.05691 17.9848L5.03983 13.1536L0.111281 13.1467C3.87317 10.0762 8.19859 7.91662 13.2858 6.42845C13.0986 5.55573 12.9161 4.72284 12.7085 3.57007C12.5807 2.86049 12.6964 2.1272 13.5408 1.80822C16.2345 0.790673 20.6192 0.111276 25.5701 0.111276C30.5209 0.111276 34.9057 0.790673 37.5994 1.80822C38.4438 2.1272 38.5594 2.86049 38.4316 3.57007C38.224 4.72284 38.0416 5.55573 37.8544 6.42845C42.9415 7.91662 47.267 10.0762 51.0289 13.1467L46.1003 13.1536L47.0832 17.9848C42.3697 14.6454 37.3342 12.2558 29.2746 11.1275C28.2071 10.9781 28.3898 9.39201 29.3905 9.4491C31.6685 9.57904 33.2219 10.081 35.142 10.6105C37.2213 11.1839 37.4643 9.11928 36.1644 8.72581C33.0412 7.78048 30.0346 7.05807 25.5701 7.0845C21.1056 7.05807 18.0989 7.78048 14.9758 8.72581C13.6758 9.11928 13.9189 11.1839 15.9981 10.6105C17.9182 10.081 19.4716 9.57904 21.7496 9.4491C22.7504 9.39201 22.933 10.9781 21.8655 11.1275C13.8059 12.2558 8.77039 14.6454 4.05691 17.9848Z" fill="var(--fill-0, white)" stroke="var(--stroke-0, black)" stroke-width="0.22255" stroke-linejoin="round"/>
<path id="path4299-7" d="M13.2653 6.3334L14.1897 9.91135" stroke="var(--stroke-0, black)" stroke-width="0.22255"/>
<path id="path4301-7" d="M22.5869 10.2694L22.4113 7.16836" stroke="var(--stroke-0, black)" stroke-width="0.22255"/>
<path id="path4299-7-9" d="M37.8748 6.3334L36.9504 9.91135" stroke="var(--stroke-0, black)" stroke-width="0.22255"/>
<path id="path4301-7-8" d="M28.5532 10.2694L28.7287 7.16836" stroke="var(--stroke-0, black)" stroke-width="0.22255"/>
</g>
<path id="path7284" d="M25.5701 7.07315V6.78755C22.4124 6.78755 19.6918 7.05038 15.916 8.13785C14.9061 8.42869 14.3359 8.5117 14.0283 9.15989L14.1273 9.69275C14.2505 8.67285 15.2698 8.54906 18.9353 7.71299C21.0771 7.22446 23.2974 7.05098 25.5701 7.07315Z" fill="var(--fill-0, black)" stroke="var(--stroke-0, black)" stroke-width="0.0741833"/>
<path id="path4188-1-2-9" d="M25.5701 0.110205C20.6192 0.110205 16.2344 0.789603 13.5408 1.80715C12.8763 2.05814 12.6629 2.56633 12.6645 3.11695L12.7172 3.33641C12.6924 2.45324 13.4014 2.16506 13.9581 1.97174C17.1072 0.878011 21.5653 0.409257 25.5701 0.409257V0.110205Z" fill="var(--fill-0, black)" stroke="var(--stroke-0, black)" stroke-width="0.0741833" stroke-linejoin="round"/>
<path id="path4188-1-2-3" d="M12.8662 4.07905L12.8082 4.10224C12.9755 4.98584 13.1293 5.69811 13.2858 6.42742C8.19859 7.91559 3.87316 10.0752 0.111273 13.1456L5.03983 13.1526L4.0569 17.9838C8.77038 14.6443 13.8059 12.2547 21.8655 11.1265C22.286 11.0676 22.5113 10.7868 22.5703 10.4704L22.5311 10.0059C22.63 10.5789 22.2033 10.7806 21.9165 10.8205C18.4241 11.3063 14.6988 12.1327 11.1576 13.6325C8.87654 14.5986 6.68235 15.8033 4.49273 17.3254C4.76883 15.9667 5.04654 14.6071 5.32265 13.2476C5.3758 12.986 5.20714 12.8586 5.00274 12.8582C3.62623 12.8558 2.30395 12.8553 0.964381 12.8512C2.59373 11.579 4.48287 10.3816 6.54668 9.35302C8.68409 8.28773 10.9532 7.41913 13.3878 6.70792L12.8662 4.07905Z" fill="var(--fill-0, black)" stroke="var(--stroke-0, black)" stroke-width="0.0741833" stroke-linejoin="round"/>
<path id="path7357" d="M22.5068 9.6289C22.311 9.41072 22.1003 9.27961 21.6645 9.30501C20.0129 9.40125 18.5863 9.72116 16.7088 10.259C15.5742 10.6153 14.6008 10.8391 14.2585 9.94909C14.4764 10.9824 15.635 10.7234 16.0978 10.5876C17.9427 10.0465 19.4823 9.66205 21.0866 9.49807C21.8469 9.42036 22.0229 9.43311 22.5068 9.6289Z" fill="var(--fill-0, black)" stroke="var(--stroke-0, black)" stroke-width="0.0741833"/>
<g id="g7481">
<path id="path7284-9" d="M25.5701 7.07335V6.78774C28.7278 6.78774 31.4483 7.05057 35.2242 8.13805C36.234 8.42889 36.8042 8.5119 37.1118 9.16009L37.0129 9.69295C36.8897 8.67305 35.8704 8.54926 32.2049 7.71318C30.0631 7.22466 27.8427 7.05117 25.5701 7.07335Z" fill="var(--fill-0, black)" stroke="var(--stroke-0, black)" stroke-width="0.0741833"/>
<path id="path4188-1-2-9-1" d="M25.5701 0.110217C30.5209 0.110217 34.9057 0.789614 37.5994 1.80716C38.2638 2.05815 38.4772 2.56634 38.4757 3.11696L38.423 3.33642C38.4478 2.45325 37.7387 2.16507 37.1821 1.97175C34.033 0.878022 29.5748 0.409268 25.5701 0.409268V0.110217Z" fill="var(--fill-0, black)" stroke="var(--stroke-0, black)" stroke-width="0.0741833" stroke-linejoin="round"/>
<path id="path4188-1-2-3-7" d="M38.274 4.07925L38.3319 4.10243C38.1647 4.98604 38.0108 5.6983 37.8544 6.42761C42.9416 7.91579 47.267 10.0754 51.0289 13.1458L46.1003 13.1528L47.0832 17.984C42.3698 14.6445 37.3342 12.2549 29.2746 11.1267C28.8541 11.0678 28.6288 10.787 28.5699 10.4706L28.609 10.0061C28.5102 10.5791 28.9368 10.7808 29.2236 10.8207C32.7161 11.3065 36.4413 12.1329 39.9825 13.6327C42.2636 14.5988 44.4578 15.8035 46.6474 17.3256C46.3713 15.9669 46.0936 14.6072 45.8175 13.2478C45.7643 12.9862 45.933 12.8587 46.1374 12.8584C47.5139 12.856 48.8362 12.8555 50.1758 12.8514C48.5464 11.5792 46.6573 10.3818 44.5935 9.35322C42.4561 8.28792 40.187 7.41933 37.7524 6.70812L38.274 4.07925Z" fill="var(--fill-0, black)" stroke="var(--stroke-0, black)" stroke-width="0.0741833" stroke-linejoin="round"/>
<path id="path7357-3" d="M28.6334 9.62909C28.8292 9.41092 29.0399 9.27981 29.4757 9.3052C31.1273 9.40145 32.5538 9.72135 34.4313 10.2592C35.566 10.6155 36.5393 10.8393 36.8816 9.94929C36.6638 10.9826 35.5052 10.7236 35.0424 10.5878C33.1975 10.0467 31.6579 9.66224 30.0535 9.49826C29.2933 9.42056 29.1172 9.4333 28.6334 9.62909Z" fill="var(--fill-0, black)" stroke="var(--stroke-0, black)" stroke-width="0.0741833"/>
</g>
</g>
</svg>
