<svg preserveAspectRatio="none" width="100%" height="100%" overflow="visible" style="display: block;" viewBox="0 0 59.7639 29.2445" fill="none" xmlns="http://www.w3.org/2000/svg">
<g id="g7600-2">
<path id="path3867-5" d="M8.14372 7.89399C7.5384 7.89882 7.09089 8.40459 7.2767 8.8607C8.22642 11.1919 10.4334 13.9063 13.6032 16.2188C14.0565 15.6794 14.9026 14.6819 15.4067 14.0906C13.2253 12.4789 10.9018 11.0321 9.45584 8.76565C9.04497 8.12164 8.55789 7.89069 8.14372 7.89399Z" fill="var(--fill-0, white)"/>
<path id="path3867-2-5" d="M51.6198 7.89399C52.2251 7.89882 52.6727 8.40459 52.4868 8.8607C51.5371 11.1919 49.3302 13.9063 46.1604 16.2188C45.7071 15.6794 44.861 14.6819 44.3569 14.0906C46.5382 12.4789 48.8617 11.0321 50.3077 8.76565C50.7186 8.12164 51.2057 7.89069 51.6198 7.89399Z" fill="var(--fill-0, white)"/>
<path id="path3007-5-3" d="M7.10538 0.111275L5.70285 7.29778L0.111282 3.54225C1.24314 6.43501 2.57536 9.48159 4.32582 12.078C3.62687 12.9048 2.93505 13.733 2.24869 14.5631C1.84475 15.0516 1.87516 15.4974 2.42487 16.1928C8.39412 23.7444 18.2575 29.1332 29.882 29.1332C41.5064 29.1332 51.3698 23.7444 57.3391 16.1928C57.8888 15.4974 57.9192 15.0516 57.5153 14.5631C56.8289 13.733 56.1371 12.9048 55.4381 12.078C57.1886 9.48159 58.5208 6.43501 59.6527 3.54225L54.0611 7.29778L52.6586 0.111275C51.9589 3.36129 50.0706 8.90152 44.4961 13.0864C44.0635 13.4112 44.086 13.7706 44.357 14.0902C44.5913 14.3665 44.9408 14.3736 45.2565 14.1296C47.2249 12.6079 48.9795 10.8473 50.3079 8.76522C51.3193 7.17998 52.8 8.0921 52.487 8.86027C50.322 14.1745 41.6223 21.4784 29.882 21.4784C18.1417 21.4784 9.44194 14.1745 7.27693 8.86027C6.96398 8.0921 8.44468 7.17998 9.45606 8.76522C10.7844 10.8473 12.5391 12.6079 14.5075 14.1296C14.8231 14.3736 15.1726 14.3665 15.407 14.0902C15.6779 13.7706 15.7005 13.4112 15.2679 13.0864C9.69334 8.90152 7.80507 3.36129 7.10538 0.111275Z" fill="var(--fill-0, white)" stroke="var(--stroke-0, black)" stroke-width="0.22255" stroke-linejoin="round"/>
<path id="path3965-33" d="M15.4067 14.0904L13.5871 16.2333" stroke="var(--stroke-0, black)" stroke-width="0.22255"/>
<path id="path3973-7" d="M4.32594 12.0793C5.36656 10.8284 6.49778 9.61172 7.34026 8.30314" stroke="var(--stroke-0, black)" stroke-width="0.22255"/>
<path id="path3965-3-4" d="M44.3568 14.0904L46.1764 16.2332" stroke="var(--stroke-0, black)" stroke-width="0.22255"/>
<path id="path3973-4-38" d="M55.4376 12.0792C54.397 10.8283 53.2658 9.61164 52.4233 8.30307" stroke="var(--stroke-0, black)" stroke-width="0.22255"/>
<path id="path3007-5-7-08" d="M7.2419 8.55912L6.95675 8.86744C7.74201 10.799 9.15461 12.6888 10.9882 14.4312C13.0789 16.418 16.3821 18.7506 20.6644 20.2268C24.0069 21.379 27.1538 21.7753 29.8817 21.7753V21.4786C18.1414 21.4786 9.44168 14.1747 7.27667 8.86049C7.23597 8.76059 7.2269 8.65808 7.2419 8.55912Z" fill="var(--fill-0, black)" stroke="var(--stroke-0, black)" stroke-width="0.0741833"/>
<path id="path3007-5-9-8" d="M2.33534 14.4756C2.31298 14.5026 2.27078 14.5363 2.24844 14.5633C1.8445 15.0519 1.8749 15.4976 2.42462 16.193C8.39387 23.7446 18.2573 29.1334 29.8817 29.1334V28.8367C26.2654 28.8367 21.883 28.3012 17.3563 26.6042C13.6135 25.201 10.5543 23.3538 8.11124 21.4299C5.64519 19.4879 3.78597 17.4681 2.6124 15.9496C2.16314 15.3683 1.92423 15.0002 2.33534 14.4756Z" fill="var(--fill-0, black)" stroke="var(--stroke-0, black)" stroke-width="0.0741833"/>
<path id="path7043-1-0" d="M7.10511 0.111275L5.70259 7.29778L0.111018 3.54225C1.24249 6.43402 2.57366 9.47985 4.32324 12.0757L4.52029 11.8346C3.52591 10.3491 2.77388 8.89029 2.08383 7.43456C1.58158 6.37501 1.15442 5.34506 0.732304 4.31886C2.32116 5.39065 3.75967 6.34339 5.49163 7.51338C5.757 7.69264 5.95107 7.57483 6.02018 7.22128C6.40575 5.24879 6.88666 2.76762 7.13757 1.4883C7.82612 4.03655 9.01034 6.60673 10.6358 8.82086C11.7685 10.3639 13.1563 11.8206 14.7251 13.0447C15.0826 13.3236 15.6369 13.6884 15.3279 14.1087L15.5945 13.7262C15.6334 13.5115 15.5418 13.2923 15.2676 13.0864C9.69308 8.90152 7.8048 3.36129 7.10511 0.111275Z" fill="var(--fill-0, black)" stroke="var(--stroke-0, black)" stroke-width="0.0741833"/>
<path id="path3007-5-7-0-6" d="M52.5216 8.55905L52.8068 8.86737C52.0215 10.7989 50.6089 12.6887 48.7754 14.4311C46.6847 16.4179 43.3814 18.7505 39.0991 20.2267C35.7566 21.3789 32.6097 21.7753 29.8818 21.7753V21.4785C41.6221 21.4785 50.3218 14.1747 52.4868 8.86042C52.5275 8.76052 52.5366 8.658 52.5216 8.55905Z" fill="var(--fill-0, black)" stroke="var(--stroke-0, black)" stroke-width="0.0741833"/>
<path id="path3007-5-9-7-8" d="M57.4282 14.4756C57.4505 14.5026 57.4927 14.5363 57.5151 14.5633C57.919 15.0519 57.8886 15.4976 57.3389 16.193C51.3697 23.7446 41.5062 29.1334 29.8818 29.1334V28.8367C33.4982 28.8367 37.8805 28.3012 42.4072 26.6042C46.15 25.2011 49.2092 23.3538 51.6523 21.4299C54.1183 19.4879 55.9775 17.4681 57.1511 15.9496C57.6004 15.3683 57.8393 15.0002 57.4282 14.4756Z" fill="var(--fill-0, black)" stroke="var(--stroke-0, black)" stroke-width="0.0741833"/>
<path id="path7043-1-9-1" d="M52.6584 0.11144L54.0609 7.29795L59.6525 3.54242C58.521 6.43419 57.1898 9.48001 55.4403 12.0758L55.2432 11.8347C56.2376 10.3492 56.9896 8.89045 57.6797 7.43472C58.1819 6.37517 58.6091 5.34522 59.0312 4.31902C57.4423 5.39082 56.0038 6.34356 54.2719 7.51354C54.0065 7.69281 53.8124 7.57499 53.7433 7.22145C53.3577 5.24896 52.8768 2.76779 52.6259 1.48847C51.9374 4.03672 50.7532 6.60689 49.1277 8.82102C47.995 10.364 46.6072 11.8208 45.0384 13.0448C44.6809 13.3237 44.1266 13.6886 44.4356 14.1089L44.169 13.7264C44.1301 13.5116 44.2217 13.2924 44.4959 13.0866C50.0704 8.90168 51.9587 3.36146 52.6584 0.11144Z" fill="var(--fill-0, black)" stroke="var(--stroke-0, black)" stroke-width="0.0741833"/>
<path id="path7202-98" d="M7.39385 8.96464C7.22745 8.53918 7.54221 8.13033 8.01266 8.04995C8.48239 7.96969 8.99855 8.29282 9.37076 8.90647C9.68749 9.42864 10.5037 10.5313 11.2247 11.3194C12.172 12.3548 13.2756 13.3646 14.477 14.2913C14.6577 14.4307 14.8676 14.4619 15.0786 14.4839L15.1605 14.3069C14.5803 14.4877 12.5635 12.514 11.3532 11.2311C9.81111 9.59654 9.11817 7.61117 7.96758 7.87783C7.48596 7.98944 7.18149 8.3024 7.18075 8.80891L7.39385 8.96464Z" fill="var(--fill-0, black)" stroke="var(--stroke-0, black)" stroke-width="0.0741833"/>
<path id="path7202-0-9" d="M52.3697 8.96457C52.5361 8.53911 52.2213 8.13026 51.7508 8.04988C51.2811 7.96962 50.765 8.29274 50.3927 8.9064C50.076 9.42857 49.2598 10.5312 48.5388 11.3193C47.5915 12.3547 46.4879 13.3646 45.2865 14.2913C45.1058 14.4307 44.8959 14.4618 44.6849 14.4839L44.603 14.3068C45.1833 14.4876 47.2 12.5139 48.4103 11.2311C49.9524 9.59646 50.6453 7.6111 51.7959 7.87776C52.2775 7.98937 52.582 8.30233 52.5828 8.80884L52.3697 8.96457Z" fill="var(--fill-0, black)" stroke="var(--stroke-0, black)" stroke-width="0.0741833"/>
</g>
</svg>
