<svg preserveAspectRatio="none" width="100%" height="100%" overflow="visible" style="display: block;" viewBox="0 0 136.936 83.5213" fill="none" xmlns="http://www.w3.org/2000/svg">
<g id="text4198">
<path id="path6820" d="M6.32224 79.0584L4.92682 79.2978L4.3085 75.6934L7.60779 75.1275C8.00684 75.4196 8.39239 75.8759 8.76442 76.4964C9.13645 77.1169 9.38093 77.768 9.49788 78.4497C9.64648 79.3159 9.5943 80.1023 9.34133 80.8087C9.08837 81.515 8.65164 82.0882 8.03115 82.5281C7.41067 82.9679 6.70308 83.256 5.90838 83.3924C5.0459 83.5403 4.24844 83.491 3.51601 83.2445C2.78359 82.9979 2.17871 82.5569 1.70137 81.9215C1.33534 81.4377 1.08448 80.8002 0.948785 80.0093C0.772408 78.9811 0.850248 78.141 1.1823 77.4889C1.51438 76.8368 2.0466 76.3626 2.77896 76.0663L3.37461 77.674C2.98788 77.8605 2.70444 78.135 2.52428 78.4974C2.34413 78.8598 2.29541 79.282 2.3781 79.7641C2.50345 80.4948 2.83474 81.036 3.37197 81.3878C3.90921 81.7396 4.63355 81.8373 5.545 81.6809C6.52801 81.5123 7.22779 81.1674 7.64434 80.6462C8.0609 80.125 8.20844 79.5103 8.08698 78.8022C8.02689 78.452 7.89791 78.1126 7.70002 77.784C7.50214 77.4554 7.28363 77.1818 7.04449 76.963L5.99369 77.1433L6.32224 79.0584Z" fill="var(--fill-0, black)"/>
<path id="path6822" d="M4.47256 73.7867C3.61674 73.8026 2.89606 73.688 2.31054 73.4429C1.87906 73.2598 1.49022 73.0063 1.14401 72.6821C0.797805 72.358 0.538883 72.0007 0.367241 71.6102C0.13588 71.0909 0.0138133 70.4893 0.00103889 69.8054C-0.0220592 68.5675 0.343428 67.5699 1.0975 66.8124C1.85159 66.055 2.91253 65.6634 4.28032 65.6379C5.63666 65.6126 6.70473 65.9615 7.48454 66.6846C8.26435 67.4077 8.66577 68.3863 8.68881 69.6203C8.71213 70.8697 8.34956 71.8702 7.6011 72.6218C6.85264 73.3734 5.8098 73.7617 4.47256 73.7867ZM4.38262 72.0397C5.33397 72.022 6.05102 71.7889 6.53377 71.3403C7.01653 70.8918 7.25159 70.3294 7.23897 69.6531C7.22635 68.9769 6.97242 68.4265 6.47719 68.0019C5.98196 67.5774 5.24721 67.3742 4.27294 67.3924C3.31014 67.4104 2.59579 67.6348 2.12991 68.0658C1.66403 68.4969 1.43762 69.062 1.45066 69.7612C1.46372 70.4603 1.71398 71.0194 2.20146 71.4384C2.68895 71.8574 3.416 72.0578 4.38262 72.0397Z" fill="var(--fill-0, black)"/>
<path id="path6824" d="M8.86724 62.1075L0.16246 64.0723L0.385078 62.2459L6.8159 60.8874L0.891346 58.0923L1.10911 56.3056L9.08639 60.3096L8.86724 62.1075Z" fill="var(--fill-0, black)"/>
<path id="path6826" d="M9.66753 56.4612L1.53076 54.3623L3.08701 48.3291L4.46349 48.6842L3.33102 53.0745L5.13488 53.5398L6.1886 49.4548L7.55953 49.8084L6.5058 53.8934L8.72038 54.4646L9.89294 49.9189L11.2639 50.2726L9.66753 56.4612Z" fill="var(--fill-0, black)"/>
<path id="path6828" d="M11.7225 48.8812L3.94875 45.6905L5.30469 42.3869C5.64567 41.5561 5.96325 40.9812 6.25741 40.662C6.55158 40.3428 6.92362 40.1434 7.37353 40.0637C7.82344 39.984 8.27818 40.0384 8.73775 40.2271C9.32105 40.4665 9.73234 40.8356 9.97162 41.3345C10.2109 41.8334 10.24 42.4443 10.059 43.1672C10.3962 42.9091 10.7286 42.7181 11.0562 42.5944C11.3837 42.4707 11.9266 42.3455 12.6849 42.2189L14.5911 41.8922L13.8206 43.7693L11.6633 44.2098C10.8934 44.3647 10.3993 44.4841 10.1811 44.568C9.9628 44.652 9.79041 44.765 9.66388 44.9072C9.53736 45.0494 9.40009 45.3008 9.25209 45.6614L9.1215 45.9795L12.3668 47.3116L11.7225 48.8812ZM7.88067 45.4703L8.35732 44.309C8.66638 43.556 8.82754 43.0728 8.84081 42.8593C8.85408 42.6458 8.8047 42.4541 8.69268 42.2842C8.58067 42.1143 8.408 41.9815 8.17468 41.8857C7.91308 41.7783 7.6732 41.7615 7.45503 41.8351C7.23688 41.9087 7.05435 42.0641 6.90745 42.3012C6.83755 42.4212 6.672 42.7994 6.41082 43.4357L5.90806 44.6606L7.88067 45.4703Z" fill="var(--fill-0, black)"/>
<path id="path6830" d="M15.0658 41.065L7.8215 36.8069L8.65802 35.3837L15.2386 35.2624L10.4008 32.4188L11.1995 31.0599L18.4439 35.318L17.5812 36.7857L11.1405 36.9293L15.8646 39.7061L15.0658 41.065Z" fill="var(--fill-0, black)"/>
<path id="path6832" d="M19.418 33.8159L12.9016 28.5104L14.5048 26.5412L19.9125 28.9778L16.4193 24.1898L18.0261 22.2162L24.5426 27.5217L23.5473 28.7441L18.4178 24.5677L22.4942 30.0376L21.4628 31.3044L15.2837 28.4171L20.4133 32.5935L19.418 33.8159Z" fill="var(--fill-0, black)"/>
<path id="path6834" d="M25.7671 26.329L20.0925 20.1314L24.6878 15.9238L25.6478 16.9722L22.3038 20.0341L23.5618 21.408L26.6733 18.5591L27.6294 19.6033L24.5179 22.4522L26.0624 24.139L29.5248 20.9688L30.4809 22.013L25.7671 26.329Z" fill="var(--fill-0, black)"/>
<path id="path6836" d="M31.6326 21.0891L26.8468 14.182L28.2037 13.2418L34.2266 15.8957L31.0307 11.2831L32.3264 10.3854L37.1121 17.2924L35.7128 18.262L29.8074 15.6871L32.9283 20.1914L31.6326 21.0891Z" fill="var(--fill-0, black)"/>
<path id="path6838" d="M40.3618 15.5274L37.1665 9.32L34.9495 10.4612L34.2989 9.19732L40.2362 6.14097L40.8868 7.40487L38.675 8.54347L41.8704 14.7509L40.3618 15.5274Z" fill="var(--fill-0, black)"/>
<path id="path6840" d="M46.6352 8.07132C46.3953 7.24965 46.3168 6.52416 46.3998 5.89483C46.4633 5.43045 46.606 4.9887 46.8279 4.56958C47.0499 4.15048 47.3268 3.80688 47.6585 3.53882C48.0989 3.17934 48.6475 2.90375 49.3041 2.71202C50.4925 2.365 51.5511 2.45596 52.4799 2.98493C53.4086 3.51391 54.0647 4.435 54.4482 5.74819C54.8284 7.05039 54.7719 8.17256 54.2787 9.11474C53.7855 10.0569 52.9465 10.701 51.7617 11.047C50.5622 11.3972 49.5016 11.3098 48.58 10.7847C47.6584 10.2596 47.0101 9.35517 46.6352 8.07132ZM48.2974 7.52626C48.5641 8.43963 48.9771 9.07043 49.5366 9.41862C50.0961 9.7668 50.7005 9.84607 51.3497 9.65649C51.999 9.46691 52.4635 9.0775 52.7433 8.48824C53.023 7.89899 53.0264 7.13667 52.7532 6.20129C52.4833 5.27692 52.0793 4.64647 51.5412 4.30997C51.003 3.97348 50.3983 3.90324 49.727 4.09924C49.0558 4.29526 48.5819 4.68341 48.3055 5.26371C48.0291 5.84404 48.0264 6.59822 48.2974 7.52626Z" fill="var(--fill-0, black)"/>
<path id="path6842" d="M56.9512 9.57596L55.716 1.26413L61.4141 0.417383L61.6231 1.82347L57.6032 2.42084L57.8956 4.38822L61.3655 3.87258L61.5744 5.27867L58.1046 5.79431L58.6295 9.32658L56.9512 9.57596Z" fill="var(--fill-0, black)"/>
<path id="path6844" d="M66.9649 5.71058L68.6198 5.60008C68.7024 6.15692 68.8915 6.56979 69.1873 6.8387C69.4831 7.10763 69.8889 7.2499 70.4045 7.2655C70.9507 7.282 71.3658 7.17891 71.6497 6.95621C71.9336 6.73351 72.0802 6.46746 72.0896 6.15807C72.0954 5.95946 72.0424 5.78868 71.9302 5.64573C71.8179 5.5028 71.6182 5.37536 71.331 5.26344C71.1344 5.18868 70.6855 5.05279 69.9842 4.85571C69.082 4.60286 68.4525 4.30663 68.0957 3.96705C67.5941 3.48928 67.3533 2.91808 67.3734 2.25346C67.3863 1.82568 67.5197 1.42928 67.7735 1.06419C68.0274 0.699134 68.3854 0.426074 68.8478 0.245077C69.3101 0.0640919 69.864 -0.0166198 70.5095 0.0028998C71.5637 0.0347911 72.3503 0.289883 72.8691 0.768161C73.388 1.24646 73.6491 1.8718 73.6525 2.64416L71.9543 2.66732C71.8948 2.23352 71.7486 1.91844 71.5155 1.72214C71.2825 1.52586 70.9273 1.4205 70.4499 1.40604C69.9571 1.39111 69.5683 1.4807 69.2834 1.67469C69.0999 1.79913 69.0049 1.9702 68.9983 2.18791C68.9924 2.38653 69.0712 2.55905 69.235 2.70546C69.4434 2.89145 69.9572 3.09433 70.7764 3.31408C71.5955 3.53385 72.1996 3.75381 72.5886 3.97394C72.9776 4.19407 73.2784 4.48797 73.4909 4.85567C73.7035 5.22339 73.8017 5.67273 73.7856 6.20365C73.7711 6.68492 73.6238 7.13155 73.3437 7.54362C73.0636 7.95568 72.676 8.2565 72.1809 8.44605C71.6858 8.63561 71.0735 8.71937 70.344 8.6973C69.2821 8.66515 68.4741 8.3951 67.9198 7.88706C67.3655 7.37903 67.0472 6.65355 66.9649 5.71058Z" fill="var(--fill-0, black)"/>
<path id="path6846" d="M75.5235 4.61896C75.6691 3.77547 75.9175 3.08931 76.2686 2.56049C76.5297 2.17126 76.852 1.83718 77.2356 1.55827C77.6192 1.27937 78.0189 1.09246 78.4347 0.997489C78.9883 0.868163 79.6021 0.86165 80.2762 0.978024C81.4962 1.18868 82.4071 1.73567 83.0089 2.61901C83.6106 3.50235 83.7951 4.61809 83.5624 5.96617C83.3316 7.30297 82.7876 8.28611 81.9305 8.91565C81.0734 9.54518 80.0367 9.75496 78.8204 9.54497C77.589 9.33238 76.6748 8.78771 76.0777 7.91099C75.4807 7.03428 75.2959 5.93693 75.5235 4.61896ZM77.256 4.8599C77.0941 5.79754 77.1879 6.54569 77.5374 7.10433C77.8869 7.66298 78.3949 7.99985 79.0615 8.11492C79.728 8.22999 80.3164 8.08441 80.8267 7.67805C81.3369 7.27172 81.675 6.58842 81.8408 5.62819C82.0046 4.67925 81.9188 3.93543 81.5833 3.39665C81.2478 2.85787 80.7355 2.52897 80.0464 2.40999C79.3573 2.29103 78.7611 2.43147 78.2577 2.83121C77.7544 3.23099 77.4205 3.9072 77.256 4.8599Z" fill="var(--fill-0, black)"/>
<path id="path6848" d="M86.7494 2.48398L88.3607 3.01547L86.935 7.33763C86.7088 8.02352 86.5821 8.47463 86.555 8.69102C86.5162 9.04038 86.5939 9.35674 86.7882 9.6401C86.9824 9.92347 87.3045 10.1394 87.7545 10.2878C88.2118 10.4386 88.5874 10.4589 88.8813 10.3486C89.1752 10.2383 89.3906 10.0549 89.5276 9.79825C89.6645 9.54163 89.8371 9.09757 90.0454 8.46612L91.5016 4.05145L93.1129 4.58293L91.7303 8.77441C91.4143 9.73247 91.1475 10.3949 90.9299 10.7617C90.7124 11.1286 90.4417 11.4095 90.1178 11.6045C89.794 11.7994 89.4094 11.913 88.9642 11.9452C88.519 11.9775 87.9807 11.8894 87.3493 11.6811C86.5872 11.4298 86.0383 11.1511 85.7026 10.8453C85.3669 10.5394 85.1311 10.2081 84.9953 9.85147C84.8594 9.49481 84.8061 9.15025 84.8352 8.81784C84.8808 8.32587 85.0508 7.63353 85.3453 6.74079L86.7494 2.48398Z" fill="var(--fill-0, black)"/>
<path id="path6850" d="M93.8399 14.096L96.8762 7.80932L94.631 6.7249L95.2492 5.44487L101.262 8.34908L100.644 9.62915L98.404 8.54724L95.3677 14.834L93.8399 14.096Z" fill="var(--fill-0, black)"/>
<path id="path6852" d="M98.579 16.4637L103.188 9.43767L104.607 10.3684L102.793 13.1337L105.573 14.9574L107.387 12.192L108.805 13.1227L104.196 20.1487L102.777 19.2181L104.793 16.146L102.013 14.3223L99.9977 17.3944L98.579 16.4637Z" fill="var(--fill-0, black)"/>
<path id="path6854" d="M105.594 21.2313L111.111 14.8926L115.811 18.983L114.877 20.0553L111.457 17.0787L110.234 18.484L113.417 21.2536L112.487 22.3216L109.305 19.552L107.803 21.2772L111.345 24.3591L110.415 25.4271L105.594 21.2313Z" fill="var(--fill-0, black)"/>
<path id="path6856" d="M111.455 26.4589L117.776 20.9218L120.129 23.608C120.721 24.2835 121.094 24.824 121.249 25.2296C121.404 25.6352 121.416 26.0571 121.287 26.4954C121.158 26.9337 120.907 27.3165 120.533 27.6438C120.059 28.0593 119.545 28.2629 118.992 28.2548C118.438 28.2466 117.878 28.0005 117.312 27.5162C117.393 27.9332 117.416 28.3158 117.38 28.6642C117.345 29.0126 117.215 29.5544 116.991 30.2896L116.434 32.1416L115.097 30.6153L115.664 28.4877C115.868 27.7295 115.981 27.234 116.004 27.0012C116.026 26.7684 116.002 26.5637 115.93 26.387C115.86 26.2104 115.696 25.9755 115.439 25.6823L115.212 25.4236L112.573 27.7351L111.455 26.4589ZM116.221 24.5398L117.048 25.4841C117.585 26.0963 117.945 26.4559 118.131 26.5629C118.316 26.67 118.509 26.7112 118.711 26.6867C118.913 26.6621 119.109 26.5667 119.299 26.4005C119.512 26.2142 119.634 26.007 119.665 25.7789C119.696 25.5508 119.639 25.3181 119.492 25.0809C119.416 24.9649 119.151 24.6482 118.698 24.1307L117.825 23.1348L116.221 24.5398Z" fill="var(--fill-0, black)"/>
<path id="path6858" d="M116.964 32.9336L124 28.3389L124.903 29.7211L122.085 35.669L126.783 32.6007L127.645 33.9204L120.609 38.5152L119.678 37.0898L122.414 31.2571L117.826 34.2534L116.964 32.9336Z" fill="var(--fill-0, black)"/>
<path id="path6860" d="M125.314 41.5803L126.087 43.0479C125.612 43.3494 125.311 43.6898 125.185 44.0693C125.06 44.4488 125.094 44.8773 125.289 45.3549C125.496 45.8608 125.758 46.1983 126.077 46.3674C126.396 46.5365 126.699 46.5625 126.985 46.4455C127.169 46.3704 127.304 46.2525 127.389 46.0918C127.474 45.9312 127.509 45.697 127.495 45.3891C127.484 45.1791 127.426 44.7137 127.321 43.9927C127.186 43.0655 127.201 42.37 127.367 41.9061C127.6 41.2537 128.024 40.8018 128.64 40.5505C129.036 40.3887 129.452 40.3496 129.889 40.4334C130.326 40.5172 130.72 40.7337 131.073 41.0827C131.427 41.4318 131.725 41.9053 131.969 42.5032C132.368 43.4796 132.454 44.3019 132.228 44.9703C132.001 45.6386 131.536 46.131 130.831 46.4476L130.121 44.9051C130.493 44.6746 130.722 44.413 130.806 44.1204C130.891 43.8278 130.843 43.4604 130.663 43.0182C130.476 42.5618 130.237 42.2428 129.944 42.0611C129.756 41.9439 129.561 41.9265 129.359 42.0089C129.175 42.0841 129.049 42.2261 128.982 42.4352C128.897 42.7013 128.92 43.2532 129.051 44.091C129.183 44.9289 129.227 45.5702 129.184 46.0151C129.141 46.46 128.994 46.8542 128.744 47.1977C128.494 47.5411 128.124 47.8133 127.632 48.0141C127.186 48.1961 126.718 48.2428 126.228 48.1541C125.738 48.0653 125.305 47.8332 124.931 47.4577C124.557 47.0821 124.232 46.5565 123.956 45.8808C123.554 44.8973 123.473 44.0492 123.713 43.3364C123.952 42.6236 124.486 42.0382 125.314 41.5803Z" fill="var(--fill-0, black)"/>
<path id="path6862" d="M133.962 48.2177L134.382 49.8614L129.973 50.9903C129.274 51.1694 128.826 51.3059 128.629 51.3997C128.313 51.5553 128.089 51.7913 127.955 52.1077C127.821 52.424 127.813 52.8117 127.93 53.2708C128.05 53.7372 128.235 54.0644 128.486 54.2526C128.738 54.4407 129.008 54.5232 129.298 54.5003C129.588 54.4773 130.055 54.3834 130.699 54.2184L135.203 53.0654L135.624 54.709L131.348 55.8038C130.371 56.054 129.669 56.1864 129.243 56.2008C128.816 56.2153 128.434 56.1387 128.095 55.971C127.756 55.8034 127.453 55.5407 127.186 55.1831C126.919 54.8255 126.703 54.3246 126.538 53.6804C126.339 52.903 126.278 52.2905 126.355 51.8429C126.431 51.3953 126.583 51.0181 126.81 50.7114C127.038 50.4047 127.299 50.1741 127.595 50.0195C128.034 49.7927 128.709 49.5627 129.619 49.3296L133.962 48.2177Z" fill="var(--fill-0, black)"/>
<path id="path6864" d="M136.163 57.6485L136.5 60.7312C136.576 61.4264 136.581 61.9621 136.514 62.3384C136.423 62.8442 136.213 63.292 135.882 63.6817C135.552 64.0715 135.13 64.3867 134.616 64.6274C134.103 64.868 133.454 65.0311 132.672 65.1167C131.984 65.1918 131.382 65.1711 130.866 65.0546C130.235 64.9121 129.711 64.6677 129.292 64.3213C128.976 64.0599 128.71 63.6891 128.496 63.2089C128.338 62.8495 128.225 62.3584 128.156 61.7354L127.81 58.5615L136.163 57.6485ZM134.934 59.4896L129.401 60.0943L129.539 61.3536C129.59 61.8246 129.654 62.1617 129.73 62.3648C129.828 62.6308 129.969 62.8452 130.152 63.0078C130.335 63.1703 130.62 63.2882 131.007 63.3612C131.393 63.4343 131.91 63.4355 132.555 63.3651C133.201 63.2945 133.691 63.1834 134.024 63.0317C134.357 62.8799 134.609 62.6909 134.781 62.4646C134.952 62.2383 135.055 61.9638 135.089 61.641C135.116 61.3997 135.092 60.9352 135.017 60.2476L134.934 59.4896Z" fill="var(--fill-0, black)"/>
<path id="path6866" d="M128.377 74.5935L128.434 72.7486L130.365 72.0744L130.469 68.717L128.582 67.9647L128.638 66.1657L136.936 69.6972L136.88 71.4905L128.377 74.5935ZM131.797 71.5739L134.949 70.5131L131.868 69.2822L131.797 71.5739Z" fill="var(--fill-0, black)"/>
<path id="path6868" d="M128.228 75.5176L136.507 76.953L136.225 78.5795L130.109 81.0096L135.638 81.9682L135.369 83.5213L127.089 82.0859L127.38 80.4085L133.358 78.0068L127.958 77.0707L128.228 75.5176Z" fill="var(--fill-0, black)"/>
</g>
</svg>
