<svg viewBox="0 0 24 24" fill="#fff" xmlns="http://www.w3.org/2000/svg"><path d="M12 3a9 9 0 0 0-3.3 17.4c-.08-.7-.15-1.8.03-2.6l1.05-4.5s-.27-.54-.27-1.32c0-1.24.72-2.16 1.6-2.16.76 0 1.13.57 1.13 1.25 0 .76-.48 1.9-.73 2.96-.2.88.44 1.6 1.3 1.6 1.57 0 2.78-1.65 2.78-4.04 0-2.11-1.52-3.59-3.68-3.59-2.5 0-3.98 1.88-3.98 3.82 0 .76.3 1.57.66 2.01.07.08.08.16.06.25l-.24 1c-.04.16-.13.2-.3.12-1.1-.51-1.78-2.1-1.78-3.39 0-2.76 2-5.29 5.79-5.29 3.04 0 5.4 2.17 5.4 5.06 0 3.02-1.9 5.45-4.54 5.45-.89 0-1.72-.46-2-1l-.55 2.08c-.2.76-.73 1.71-1.09 2.29A9 9 0 1 0 12 3z"/></svg>
