<svg preserveAspectRatio="none" width="100%" height="100%" overflow="visible" style="display: block;" viewBox="0 0 18 18" fill="none" xmlns="http://www.w3.org/2000/svg">
<g id="Group">
<g id="Vector">
</g>
<path id="Vector_2" d="M9.53026 2.727C9.38961 2.5864 9.19888 2.50741 9.00001 2.50741C8.80113 2.50741 8.6104 2.5864 8.46976 2.727L4.22701 6.96975C4.15537 7.03894 4.09824 7.1217 4.05893 7.2132C4.01962 7.3047 3.99893 7.40312 3.99807 7.5027C3.9972 7.60229 4.01618 7.70105 4.05389 7.79322C4.0916 7.88539 4.14729 7.96913 4.21771 8.03955C4.28813 8.10997 4.37187 8.16566 4.46404 8.20337C4.55621 8.24108 4.65497 8.26006 4.75456 8.25919C4.85414 8.25832 4.95256 8.23763 5.04406 8.19833C5.13556 8.15902 5.21832 8.10188 5.28751 8.03025L8.25001 5.06775V15C8.25001 15.1989 8.32902 15.3897 8.46968 15.5303C8.61033 15.671 8.80109 15.75 9.00001 15.75C9.19892 15.75 9.38968 15.671 9.53034 15.5303C9.67099 15.3897 9.75001 15.1989 9.75001 15V5.06775L12.7125 8.03025C12.854 8.16687 13.0434 8.24247 13.2401 8.24076C13.4367 8.23905 13.6248 8.16017 13.7639 8.02112C13.9029 7.88206 13.9818 7.69395 13.9835 7.4973C13.9852 7.30065 13.9096 7.1112 13.773 6.96975L9.53026 2.727Z" fill="var(--fill-0, white)"/>
</g>
</svg>
