<svg preserveAspectRatio="none" width="100%" height="100%" overflow="visible" style="display: block;" viewBox="0 0 20.2683 20.9914" fill="none" xmlns="http://www.w3.org/2000/svg">
<g id="Group">
<path id="Vector" opacity="0.987" fill-rule="evenodd" clip-rule="evenodd" d="M8.93886 0.091125C10.0264 -0.030375 10.6699 -0.030375 11.8384 0.091125C13.9068 0.397268 15.8242 1.35335 17.3134 2.82113C16.307 3.77233 15.314 4.73742 14.3344 5.71612C12.4584 4.12612 10.3644 3.75913 8.05236 4.61513C6.35636 5.39513 5.17536 6.65913 4.50936 8.40713C3.42102 7.59687 2.34686 6.76774 1.28736 5.92012C1.21373 5.88137 1.12964 5.86718 1.04736 5.87962C2.73036 2.63462 5.36036 0.704625 8.93736 0.0896249" fill="var(--fill-0, #F44336)"/>
<path id="Vector_2" opacity="0.997" fill-rule="evenodd" clip-rule="evenodd" d="M1.04438 5.87929C1.12938 5.86629 1.20988 5.87979 1.28588 5.91979C2.34538 6.76741 3.41954 7.59654 4.50788 8.40679C4.33662 9.08788 4.22866 9.78334 4.18538 10.4843C4.22238 11.1623 4.32988 11.8278 4.50788 12.4808L1.12538 15.1733C-0.347622 12.0953 -0.374622 8.99729 1.04438 5.87929Z" fill="var(--fill-0, #FFC107)"/>
<path id="Vector_3" opacity="0.999" fill-rule="evenodd" clip-rule="evenodd" d="M17.1529 18.4346C16.0997 17.5058 14.9971 16.6345 13.8499 15.8246C14.9999 15.0126 15.6979 13.8986 15.9439 12.4826H10.3084V8.56911C13.5584 8.54211 16.8069 8.56961 20.0539 8.65161C20.6699 11.9966 19.9584 15.0126 17.9194 17.6996C17.6769 17.9573 17.4201 18.2027 17.1529 18.4346Z" fill="var(--fill-0, #448AFF)"/>
<path id="Vector_4" opacity="0.993" fill-rule="evenodd" clip-rule="evenodd" d="M4.50787 12.4829C5.73787 15.5399 7.99287 16.9669 11.2729 16.7639C12.1936 16.6573 13.0764 16.3357 13.8499 15.8249C14.9979 16.6369 16.0989 17.5069 17.1529 18.4349C15.4828 19.9356 13.3535 20.826 11.1124 20.9609C10.6032 21.0016 10.0916 21.0016 9.58237 20.9609C5.76437 20.5109 2.94537 18.5819 1.12537 15.1739L4.50787 12.4829Z" fill="var(--fill-0, #43A047)"/>
</g>
</svg>
