<svg preserveAspectRatio="none" width="100%" height="100%" overflow="visible" style="display: block;" viewBox="0 0 28.0286 24.99" fill="none" xmlns="http://www.w3.org/2000/svg">
<g id="Group">
<path id="Vector" d="M25.5396 0.449818L27.5288 3.82845C27.8387 4.33824 28.0186 4.928 28.0286 5.55775C28.0284 6.32672 27.7571 7.07099 27.2623 7.65969C26.7676 8.24838 26.0812 8.64381 25.3237 8.77644C25.0379 10.5657 23.3156 11.6203 21.5913 11.6203H19.9919C19.8262 11.6203 19.6673 11.5545 19.5501 11.4373C19.433 11.3201 19.3672 11.1612 19.3672 10.9955C19.3672 10.8299 19.433 10.6709 19.5501 10.5538C19.6673 10.4366 19.8262 10.3708 19.9919 10.3708H21.5913C22.8148 10.3708 23.7924 9.70107 24.0493 8.75045C23.345 8.59132 22.7125 8.20554 22.2486 7.65229C21.7847 7.09904 21.5152 6.40888 21.4813 5.68769C21.4613 5.06795 21.6012 4.48818 21.8811 3.98838L21.8911 3.96839C21.9058 3.9484 21.9191 3.92674 21.9311 3.90342C21.9431 3.88076 21.9564 3.8591 21.9711 3.83844L23.9603 0.449818C24.3101 -0.149939 25.1898 -0.149939 25.5396 0.449818ZM26.5292 5.76766C26.5292 5.534 26.4832 5.30263 26.3938 5.08676C26.3044 4.87089 26.1733 4.67474 26.0081 4.50952C25.8429 4.3443 25.6467 4.21324 25.4309 4.12382C25.215 4.03441 24.9836 3.98838 24.75 3.98838C24.5163 3.98838 24.2849 4.03441 24.0691 4.12382C23.8532 4.21324 23.6571 4.3443 23.4918 4.50952C23.3266 4.67474 23.1955 4.87089 23.1061 5.08676C23.0167 5.30263 22.9707 5.534 22.9707 5.76766C22.9707 6.23956 23.1582 6.69212 23.4918 7.0258C23.8255 7.35948 24.2781 7.54694 24.75 7.54694C25.2219 7.54694 25.6744 7.35948 26.0081 7.0258C26.3418 6.69212 26.5292 6.23956 26.5292 5.76766Z" fill="var(--fill-0, white)"/>
<path id="Vector_2" d="M20.4817 5.71969C20.4796 5.65074 20.4789 5.58175 20.4797 5.51277L15.3438 2.54897C13.7446 1.53494 11.8896 0.997506 9.99595 0.999601C4.47819 0.999601 0 5.47779 0 10.9955C0 16.5133 4.47819 20.9915 9.99595 20.9915C11.9052 20.9915 13.6845 20.4617 15.1938 19.5321L27.029 12.7049C28.3485 11.9452 28.3485 10.0459 27.039 9.29624L26.9271 9.23226C26.6811 9.37736 26.4212 9.49757 26.1514 9.59112C26.1227 9.67815 26.091 9.76416 26.0564 9.84901C26.143 9.89643 26.2136 9.96843 26.2594 10.0559C26.3893 10.2958 26.2993 10.6057 26.0494 10.7357C25.9795 10.7756 25.8995 10.7956 25.8195 10.7956C25.7289 10.7964 25.6398 10.7726 25.5616 10.7267C24.771 11.7942 23.5005 12.421 22.231 12.5799L13.9443 17.363L13.8844 17.393C12.7248 18.1127 11.3754 18.4925 9.99595 18.4925C5.85763 18.4925 2.49899 15.1339 2.49899 10.9955C2.49899 6.85723 5.86762 3.49859 9.99595 3.49859C11.4154 3.49859 12.8048 3.89843 14.0043 4.65812C14.0443 4.68811 14.0843 4.7081 14.1243 4.72809L22.0831 9.31723C22.223 9.28546 22.3584 9.23608 22.4859 9.17029C21.6855 8.66557 21.073 7.9119 20.7426 7.02516C20.706 7.1172 20.6426 7.19612 20.5606 7.25173C20.4786 7.30733 20.3818 7.33705 20.2828 7.33703C20.1948 7.33414 20.1087 7.31015 20.0319 7.26706C19.975 7.23467 19.9251 7.19127 19.8852 7.1394C19.8453 7.08752 19.8161 7.02821 19.7994 6.96494C19.7826 6.90166 19.7786 6.83568 19.7877 6.77084C19.7967 6.70601 19.8186 6.64363 19.852 6.58734C19.8862 6.52698 19.9329 6.47455 19.9888 6.43347C20.0448 6.39239 20.1088 6.36359 20.1766 6.34896C20.2445 6.33434 20.3147 6.33421 20.3826 6.34859C20.4505 6.36296 20.5146 6.39153 20.5707 6.4324C20.5206 6.2009 20.4911 5.9654 20.4827 5.72868L20.4817 5.71969ZM8.23666 1.81927C8.50655 1.76929 8.76645 1.94922 8.81643 2.2291C8.86641 2.49899 8.68648 2.75889 8.41659 2.79887C8.3866 2.80887 8.35661 2.80887 8.32663 2.80887C8.20198 2.80912 8.08176 2.7627 7.98963 2.67874C7.8975 2.59477 7.84015 2.47936 7.82887 2.35523C7.81758 2.2311 7.85318 2.10723 7.92866 2.00804C8.00413 1.90884 8.11401 1.8415 8.23666 1.81927ZM14.3342 3.97839C14.2773 3.94465 14.2278 3.89972 14.1887 3.84633C14.1496 3.79293 14.1218 3.73217 14.1068 3.66771C14.0919 3.60325 14.0902 3.53644 14.1017 3.47129C14.1133 3.40614 14.138 3.34402 14.1743 3.28867C14.3242 3.04877 14.6241 2.9788 14.864 3.12874C14.9199 3.16345 14.9683 3.20884 15.0066 3.26232C15.0449 3.3158 15.0723 3.37632 15.0871 3.4404C15.102 3.50447 15.1041 3.57085 15.0932 3.63573C15.0824 3.70061 15.0588 3.7627 15.0239 3.81846C14.9339 3.9684 14.764 4.05836 14.5941 4.05836C14.5025 4.05196 14.4136 4.0246 14.3342 3.97839ZM2.469 5.32785C2.63893 5.10794 2.94881 5.06795 3.16872 5.23788C3.38863 5.40781 3.42861 5.71769 3.25868 5.9376C3.15872 6.06755 3.00878 6.13752 2.85884 6.13752C2.75888 6.13752 2.64893 6.09753 2.55896 6.02756C2.50678 5.98778 2.463 5.93803 2.43019 5.8812C2.39738 5.82437 2.37617 5.76159 2.3678 5.6965C2.35943 5.63141 2.36407 5.56531 2.38144 5.50203C2.39881 5.43875 2.42857 5.37954 2.469 5.32785ZM0.579765 11.8152C0.559773 11.5453 0.759692 11.2954 1.02958 11.2754C1.30947 11.2554 1.54937 11.4554 1.56936 11.7352C1.59935 11.9951 1.39943 12.245 1.11955 12.265H1.07956C0.819668 12.265 0.599757 12.0751 0.579765 11.8152ZM21.3214 13.9843C21.5613 13.8444 21.8711 13.9244 22.0011 14.1643C22.141 14.4042 22.0611 14.714 21.8212 14.844C21.7648 14.8771 21.7024 14.8988 21.6376 14.9076C21.5729 14.9165 21.507 14.9125 21.4438 14.8958C21.3806 14.879 21.3213 14.8499 21.2694 14.8102C21.2175 14.7704 21.174 14.7207 21.1414 14.6641C21.108 14.6078 21.0862 14.5454 21.0771 14.4806C21.0681 14.4157 21.0721 14.3497 21.0888 14.2865C21.1056 14.2232 21.1348 14.1639 21.1747 14.112C21.2146 14.0601 21.2645 14.0167 21.3214 13.9843ZM3.56855 17.8628C3.36864 17.6728 3.34864 17.363 3.53857 17.1531C3.72849 16.9531 4.03836 16.9331 4.24828 17.1231C4.4482 17.313 4.46819 17.6229 4.27827 17.8328C4.17831 17.9427 4.04836 17.9927 3.90842 17.9927C3.78846 17.9927 3.66851 17.9527 3.56855 17.8628ZM15.6537 17.253C15.8936 17.1131 16.2034 17.193 16.3334 17.4329C16.4733 17.6728 16.3934 17.9727 16.1535 18.1127C16.0971 18.1458 16.0347 18.1674 15.9699 18.1763C15.9052 18.1852 15.8393 18.1812 15.7761 18.1644C15.7129 18.1477 15.6536 18.1186 15.6017 18.0789C15.5498 18.0391 15.5063 17.9894 15.4737 17.9327C15.4399 17.8766 15.4177 17.8142 15.4085 17.7492C15.3992 17.6843 15.4031 17.6182 15.4199 17.5548C15.4367 17.4914 15.466 17.432 15.5062 17.3802C15.5463 17.3284 15.5965 17.2851 15.6537 17.253ZM9.866 19.3122C10.1459 19.3122 10.3658 19.5321 10.3658 19.812C10.3658 20.0919 10.1459 20.3118 9.866 20.3118C9.58612 20.3118 9.3662 20.0919 9.3662 19.812C9.3662 19.5321 9.58612 19.3122 9.866 19.3122ZM11.0855 2.24909C11.1355 1.9792 11.4054 1.79928 11.6753 1.85925C11.795 1.88585 11.9007 1.95543 11.9726 2.05481C12.0444 2.15419 12.0772 2.27647 12.0649 2.39846C12.0526 2.52045 11.9959 2.63369 11.9057 2.7167C11.8155 2.79971 11.6979 2.84673 11.5753 2.84885C11.5453 2.83886 11.5153 2.83886 11.4753 2.83886C11.4107 2.82636 11.3492 2.80109 11.2945 2.76452C11.2397 2.72795 11.1928 2.68082 11.1565 2.6259C11.1202 2.57097 11.0952 2.50935 11.083 2.44465C11.0708 2.37995 11.0717 2.31347 11.0855 2.24909ZM4.85803 3.7185C4.82421 3.66281 4.80177 3.60096 4.792 3.53653C4.78224 3.47211 4.78535 3.40639 4.80115 3.34318C4.81696 3.27996 4.84514 3.22051 4.88407 3.16826C4.923 3.11601 4.97191 3.072 5.02796 3.03877C5.08294 3.00412 5.14427 2.98075 5.20837 2.97003C5.27247 2.95931 5.33807 2.96146 5.40133 2.97635C5.46459 2.99123 5.52426 3.01856 5.57686 3.05674C5.62946 3.09491 5.67393 3.14317 5.70769 3.19871C5.84763 3.43861 5.77766 3.73849 5.53776 3.88843C5.46365 3.93694 5.37638 3.96138 5.28786 3.9584C5.11793 3.9584 4.948 3.87843 4.85803 3.7185ZM17.0131 4.948C17.153 4.7081 17.4529 4.62813 17.6928 4.76807C17.9327 4.90802 18.0127 5.2079 17.8728 5.4478C17.8402 5.50448 17.7967 5.55414 17.7448 5.59391C17.6929 5.63368 17.6336 5.66277 17.5704 5.6795C17.5072 5.69623 17.4413 5.70027 17.3765 5.69139C17.3118 5.6825 17.2494 5.66086 17.193 5.62773C17.1362 5.59533 17.0863 5.55193 17.0464 5.50006C17.0064 5.44819 16.9773 5.38888 16.9605 5.3256C16.9438 5.26232 16.9398 5.19634 16.9488 5.13151C16.9578 5.06668 16.9797 5.00429 17.0131 4.948ZM0.919627 8.3966C0.999595 8.12671 1.27948 7.97677 1.53938 8.05674C1.79927 8.12671 1.94921 8.4066 1.87924 8.67649C1.80927 8.8864 1.60935 9.03634 1.39943 9.03634C1.32163 9.03697 1.24477 9.01932 1.17504 8.98481C1.10531 8.95029 1.04466 8.89988 0.997974 8.83764C0.951291 8.7754 0.91988 8.70306 0.906272 8.62645C0.892664 8.54985 0.897238 8.47112 0.919627 8.3966ZM23.9703 13.0347C23.9369 12.9784 23.915 12.916 23.906 12.8512C23.897 12.7864 23.9009 12.7204 23.9177 12.6571C23.9344 12.5938 23.9636 12.5345 24.0036 12.4827C24.0435 12.4308 24.0933 12.3874 24.1502 12.355C24.3901 12.2151 24.69 12.295 24.8299 12.5349C24.9699 12.7748 24.8899 13.0847 24.65 13.2146C24.57 13.2646 24.4801 13.2846 24.4001 13.2846C24.2302 13.2846 24.0702 13.1947 23.9703 13.0347ZM1.7393 14.4541C1.79837 14.4253 1.86255 14.4083 1.92817 14.4042C1.9938 14.4002 2.05958 14.409 2.12177 14.4304C2.18396 14.4517 2.24134 14.4851 2.29063 14.5287C2.33991 14.5722 2.38014 14.625 2.40902 14.6841C2.4379 14.7431 2.45486 14.8073 2.45894 14.8729C2.46302 14.9386 2.45412 15.0043 2.43278 15.0665C2.41143 15.1287 2.37804 15.1861 2.33452 15.2354C2.29099 15.2847 2.23819 15.3249 2.17912 15.3538C2.10915 15.3938 2.02918 15.4038 1.95921 15.4038C1.86626 15.4007 1.77576 15.3732 1.6968 15.3241C1.61784 15.275 1.5532 15.2059 1.50939 15.1239C1.48039 15.0648 1.46333 15.0006 1.45919 14.935C1.45506 14.8693 1.46392 14.8035 1.48528 14.7413C1.50664 14.6791 1.54008 14.6217 1.58367 14.5724C1.62725 14.5231 1.68014 14.4829 1.7393 14.4541ZM18.3126 16.3034C18.2792 16.2471 18.2573 16.1847 18.2483 16.1199C18.2393 16.0551 18.2432 15.9891 18.26 15.9258C18.2767 15.8625 18.3059 15.8032 18.3458 15.7513C18.3858 15.6995 18.4356 15.6561 18.4925 15.6237C18.7324 15.4837 19.0323 15.5637 19.1722 15.8036C19.3122 16.0435 19.2322 16.3534 18.9923 16.4833C18.9151 16.5246 18.8298 16.5485 18.7424 16.5533C18.5725 16.5533 18.4025 16.4633 18.3126 16.3034ZM6.20748 19.0323C6.30744 18.7724 6.59733 18.6524 6.85722 18.7524C7.11712 18.8524 7.23707 19.1422 7.13711 19.4021C7.05714 19.6021 6.86722 19.722 6.6673 19.722C6.60732 19.712 6.54735 19.702 6.48737 19.682C6.42629 19.6578 6.3706 19.6217 6.32346 19.576C6.27633 19.5302 6.23869 19.4755 6.21269 19.4152C6.18669 19.3549 6.17285 19.29 6.17196 19.2243C6.17107 19.1586 6.18314 19.0933 6.20748 19.0323ZM12.8548 18.7624C12.9171 18.7348 12.9844 18.7201 13.0526 18.7193C13.1207 18.7185 13.1884 18.7316 13.2513 18.7577C13.3143 18.7839 13.3713 18.8226 13.4188 18.8714C13.4663 18.9203 13.5035 18.9783 13.5279 19.0419C13.5523 19.1056 13.5635 19.1735 13.5609 19.2416C13.5582 19.3098 13.5418 19.3766 13.5125 19.4382C13.4832 19.4997 13.4417 19.5547 13.3905 19.5997C13.3393 19.6447 13.2794 19.6788 13.2146 19.7C13.0921 19.7401 12.9588 19.7315 12.8424 19.6761C12.726 19.6207 12.6353 19.5226 12.5891 19.4023C12.5429 19.2819 12.5447 19.1483 12.5941 19.0293C12.6436 18.9102 12.7369 18.8146 12.8548 18.7624Z" fill="var(--fill-0, white)"/>
<path id="Vector_3" d="M10.4957 24.99C5.12092 24.99 0.689718 20.9466 0.0729685 15.7357C1.84425 19.4342 5.62272 21.9912 9.99595 21.9912C12.0871 21.9912 14.0433 21.4114 15.7056 20.3918L24.4881 15.3239L18.1127 21.7213C17.1314 22.7546 15.9501 23.5774 14.6405 24.1394C13.331 24.7013 11.9208 24.9907 10.4957 24.99Z" fill="var(--fill-0, white)"/>
<path id="Vector_4" d="M9.63607 15.9935C10.9616 15.9935 12.2329 15.4669 13.1702 14.5296C14.1075 13.5923 14.634 12.3211 14.634 10.9955C14.634 9.67 14.1075 8.39874 13.1702 7.46144C12.2329 6.52414 10.9616 5.99757 9.63607 5.99757C8.31052 5.99757 7.03927 6.52414 6.10197 7.46144C5.16467 8.39874 4.63809 9.67 4.63809 10.9955C4.63809 12.3211 5.16467 13.5923 6.10197 14.5296C7.03927 15.4669 8.31052 15.9935 9.63607 15.9935Z" fill="var(--fill-0, white)"/>
</g>
</svg>
