<svg preserveAspectRatio="none" width="100%" height="100%" overflow="visible" style="display: block;" viewBox="0 0 21.9556 24.4434" fill="none" xmlns="http://www.w3.org/2000/svg">
<path id="Vector" d="M11.4265 12.4394C10.1964 12.4394 8.99385 12.0746 7.97103 11.3912C6.9482 10.7078 6.15101 9.73638 5.68026 8.59988C5.2095 7.46338 5.08633 6.2128 5.32632 5.0063C5.56631 3.7998 6.15868 2.69155 7.02852 1.82171C7.89836 0.95187 9.0066 0.359501 10.2131 0.119513C11.4196 -0.120476 12.6702 0.0026949 13.8067 0.473449C14.9432 0.944204 15.9146 1.7414 16.598 2.76422C17.2814 3.78705 17.6462 4.98956 17.6462 6.2197C17.6462 7.86927 16.9909 9.45128 15.8245 10.6177C14.6581 11.7841 13.0761 12.4394 11.4265 12.4394ZM11.4265 1.84814C10.5478 1.84814 9.6889 2.1087 8.95831 2.59686C8.22772 3.08503 7.6583 3.77887 7.32204 4.59066C6.98579 5.40245 6.89781 6.29572 7.06923 7.1575C7.24065 8.01929 7.66377 8.8109 8.28509 9.43221C8.9064 10.0535 9.69801 10.4766 10.5598 10.6481C11.4216 10.8195 12.3148 10.7315 13.1266 10.3953C13.9384 10.059 14.6323 9.48958 15.1204 8.75899C15.6086 8.0284 15.8692 7.16946 15.8692 6.29079C15.8692 5.70737 15.7542 5.12967 15.531 4.59066C15.3077 4.05165 14.9805 3.5619 14.5679 3.14936C14.1554 2.73683 13.6656 2.40958 13.1266 2.18632C12.5876 1.96306 12.0099 1.84814 11.4265 1.84814ZM16.3756 13.5145C11.5673 12.4319 6.53679 12.953 2.05253 14.9984C1.4358 15.293 0.915448 15.7567 0.552072 16.3356C0.188697 16.9145 -0.00274823 17.5847 2.98095e-05 18.2682V23.5549C2.98071e-05 23.6716 0.0230124 23.7871 0.0676652 23.8949C0.112318 24.0027 0.177766 24.1007 0.260274 24.1832C0.342781 24.2657 0.440732 24.3311 0.548533 24.3758C0.656335 24.4204 0.771876 24.4434 0.888559 24.4434C1.00524 24.4434 1.12078 24.4204 1.22858 24.3758C1.33639 24.3311 1.43434 24.2657 1.51684 24.1832C1.59935 24.1007 1.6648 24.0027 1.70945 23.8949C1.7541 23.7871 1.77709 23.6716 1.77709 23.5549V18.2682C1.76935 17.9223 1.86276 17.5816 2.04585 17.288C2.22894 16.9945 2.49375 16.7607 2.80778 16.6155C5.50906 15.3679 8.45108 14.7279 11.4265 14.7407C13.0937 14.7387 14.7551 14.9356 16.3756 15.3271V13.5145ZM16.5 21.9644H21.9556V23.2084H16.5V21.9644Z" fill="var(--fill-0, white)"/>
</svg>
