<svg preserveAspectRatio="none" width="100%" height="100%" overflow="visible" style="display: block;" viewBox="0 0 16.1446 13.1858" fill="none" xmlns="http://www.w3.org/2000/svg">
<path id="Vector" d="M15.256 2.19467H10.6623V3.97172H14.3675V11.4087H1.77706V3.97172H7.37479V4.34491C7.37479 4.58056 7.4684 4.80656 7.63503 4.97319C7.80166 5.13982 8.02766 5.23343 8.26332 5.23343C8.49897 5.23343 8.72497 5.13982 8.8916 4.97319C9.05823 4.80656 9.15185 4.58056 9.15185 4.34491V0.888529C9.15185 0.652876 9.05823 0.426875 8.8916 0.260243C8.72497 0.0936119 8.49897 0 8.26332 0C8.02766 0 7.80166 0.0936119 7.63503 0.260243C7.4684 0.426875 7.37479 0.652876 7.37479 0.888529V2.19467H0.888529C0.652876 2.19467 0.426875 2.28828 0.260243 2.45491C0.0936119 2.62154 0 2.84754 0 3.08319V12.2972C0 12.5329 0.0936119 12.7589 0.260243 12.9255C0.426875 13.0922 0.652876 13.1858 0.888529 13.1858H15.256C15.4917 13.1858 15.7177 13.0922 15.8843 12.9255C16.051 12.7589 16.1446 12.5329 16.1446 12.2972V3.08319C16.1446 2.84754 16.051 2.62154 15.8843 2.45491C15.7177 2.28828 15.4917 2.19467 15.256 2.19467Z" fill="var(--fill-0, white)"/>
</svg>
