<svg preserveAspectRatio="none" width="100%" height="100%" overflow="visible" style="display: block;" viewBox="0 0 16.5 20.1667" fill="none" xmlns="http://www.w3.org/2000/svg">
<g id="Group">
<path id="Vector" d="M8.24999 11.0007C9.76878 11.0007 11 9.76943 11 8.25065C11 6.73187 9.76878 5.50065 8.24999 5.50065C6.73121 5.50065 5.49999 6.73187 5.49999 8.25065C5.49999 9.76943 6.73121 11.0007 8.24999 11.0007Z" stroke="var(--stroke-0, #1C8339)" stroke-width="1.83333" stroke-linecap="round" stroke-linejoin="round"/>
<path id="Vector_2" d="M3.06455 3.06455C4.43982 1.68928 6.30508 0.916667 8.25 0.916667C10.1949 0.916667 12.0602 1.68928 13.4355 3.06455C14.8107 4.43982 15.5833 6.30508 15.5833 8.25C15.5833 9.98433 15.2148 11.1192 14.2083 12.375L8.25 19.25L2.29167 12.375C1.28517 11.1192 0.916667 9.98433 0.916667 8.25C0.916667 6.30508 1.68928 4.43982 3.06455 3.06455Z" stroke="var(--stroke-0, #1C8339)" stroke-width="1.83333" stroke-linecap="round" stroke-linejoin="round"/>
</g>
</svg>
