<svg preserveAspectRatio="none" width="100%" height="100%" overflow="visible" style="display: block;" viewBox="0 0 17.875 17.2936" fill="none" xmlns="http://www.w3.org/2000/svg">
<path id="Vector" fill-rule="evenodd" clip-rule="evenodd" d="M14.3101 0.54579L14.4568 0.59529L15.5586 0.961957C15.983 1.10404 16.3561 1.22779 16.6503 1.36529C16.9693 1.51379 17.2618 1.70446 17.4854 2.01521C17.7091 2.32596 17.798 2.66329 17.8383 3.01254C17.875 3.33612 17.875 3.72846 17.875 4.17671V11.7044C17.875 12.3442 17.875 12.8841 17.8255 13.3113C17.7742 13.755 17.6587 14.1931 17.3351 14.547C17.1435 14.7567 16.9107 14.9246 16.6513 15.0401C16.2131 15.2345 15.7612 15.2051 15.3239 15.1144C14.9022 15.0264 14.3908 14.8559 13.7839 14.6533L13.7445 14.6405C12.7178 14.2976 12.3649 14.1913 12.0239 14.2032C11.8877 14.2081 11.7524 14.2262 11.6197 14.2573C11.2869 14.3352 10.9753 14.5314 10.0742 15.1318L8.80733 15.977L8.679 16.0622C7.7055 16.7121 7.029 17.1631 6.237 17.2695C5.44592 17.3758 4.67408 17.1182 3.56492 16.747L3.41825 16.6984L2.31642 16.3317C1.892 16.1896 1.51892 16.0659 1.22467 15.9284C0.905667 15.7799 0.61325 15.5892 0.389583 15.2775C0.165917 14.9677 0.077 14.6304 0.0366666 14.2802C-3.41485e-08 13.9566 0 13.5652 0 13.117V5.58929C0 4.94854 -9.22009e-08 4.40862 0.0494999 3.98237C0.100833 3.53871 0.216333 3.10054 0.539917 2.74671C0.731471 2.53698 0.964279 2.36909 1.22375 2.25354C1.66192 2.05829 2.11475 2.08762 2.55108 2.17929C2.97275 2.26637 3.48425 2.43779 4.09108 2.64037L4.1305 2.65321C5.15717 2.99512 5.51008 3.10237 5.852 3.09046C5.98787 3.08548 6.12295 3.06736 6.25533 3.03637C6.58808 2.95754 6.89975 2.76137 7.80083 2.16187L9.06767 1.31671L9.196 1.23054C10.1695 0.58154 10.846 0.13054 11.6371 0.024207C12.4291 -0.0821264 13.2009 0.17454 14.3101 0.54579ZM12.375 1.41112V12.8447C12.8663 12.8979 13.3833 13.0702 14.0644 13.2975L14.179 13.336C14.8363 13.5551 15.2717 13.699 15.6044 13.7687C15.9308 13.8365 16.0417 13.8054 16.0921 13.7834C16.1787 13.745 16.2564 13.6891 16.3203 13.6193C16.357 13.579 16.4212 13.4827 16.4597 13.1518C16.4991 12.8145 16.5 12.3552 16.5 11.6631V4.21246C16.5 3.71746 16.4991 3.40579 16.4725 3.16929C16.4468 2.95021 16.4065 2.86862 16.3698 2.81912C16.3341 2.76962 16.2699 2.70454 16.071 2.61196C15.8547 2.51112 15.5577 2.41212 15.0902 2.25537L14.0223 1.89971C13.2092 1.62837 12.727 1.47529 12.375 1.41112ZM11 13.0097V1.71087C10.7149 1.87587 10.3492 2.11512 9.83033 2.46071L8.5635 3.30587L8.46267 3.37279C7.832 3.79446 7.36175 4.10796 6.875 4.28396V15.5828C7.16008 15.4178 7.52583 15.1776 8.04467 14.832L9.3115 13.9878L9.41233 13.9209C10.043 13.4992 10.5133 13.1857 11 13.0097ZM5.5 15.8835V4.44804C5.00867 4.39487 4.49167 4.22254 3.81058 3.99521L3.696 3.95671C3.03875 3.73762 2.60333 3.59371 2.26967 3.52404C1.94425 3.45621 1.83333 3.48646 1.78383 3.50846C1.69685 3.54701 1.61882 3.60319 1.55467 3.67346C1.518 3.71287 1.45383 3.80912 1.41533 4.14004C1.37592 4.47737 1.375 4.93754 1.375 5.62962V13.0803C1.375 13.5753 1.37592 13.887 1.4025 14.1235C1.42817 14.3425 1.4685 14.4232 1.50517 14.4736C1.54092 14.5231 1.60508 14.5882 1.804 14.6808C2.02033 14.7816 2.31733 14.8806 2.78483 15.0374L3.85275 15.393C4.66583 15.6635 5.14708 15.8175 5.5 15.8825" fill="var(--fill-0, #1E1E1E)"/>
</svg>
