<svg preserveAspectRatio="none" width="100%" height="100%" overflow="visible" style="display: block;" viewBox="0 0 28.6551 28.6551" fill="none" xmlns="http://www.w3.org/2000/svg">
<path id="Vector" d="M26.6559 14.3275C26.6559 17.5972 25.357 20.733 23.045 23.045C20.733 25.357 17.5972 26.6559 14.3275 26.6559V28.6551C22.2403 28.6551 28.6551 22.2403 28.6551 14.3275H26.6559ZM14.3275 26.6559C11.0578 26.6559 7.92209 25.357 5.61008 23.045C3.29806 20.733 1.99919 17.5972 1.99919 14.3275H0C0 22.2403 6.41473 28.6551 14.3275 28.6551V26.6559ZM1.99919 14.3275C1.99919 11.0578 3.29806 7.92209 5.61008 5.61008C7.92209 3.29806 11.0578 1.99919 14.3275 1.99919V0C6.41473 0 0 6.41473 0 14.3275H1.99919ZM18.9923 17.3263C16.9598 17.3263 15.0105 16.5189 13.5733 15.0817C12.1362 13.6445 11.3287 11.6953 11.3287 9.66275H9.32955C9.32955 12.2255 10.3476 14.6832 12.1597 16.4953C13.9718 18.3075 16.4296 19.3255 18.9923 19.3255V17.3263ZM25.5563 13.6198C24.8743 14.7509 23.9116 15.6865 22.7615 16.3359C21.6115 16.9853 20.3131 17.3265 18.9923 17.3263V19.3255C20.6575 19.326 22.2945 18.8962 23.7447 18.0777C25.1948 17.2592 26.4088 16.0799 27.2689 14.6541L25.5563 13.6198ZM11.3287 9.66275C11.3286 8.34199 11.6697 7.04359 12.3191 5.89351C12.9685 4.74344 13.9042 3.78072 15.0352 3.09874L14.001 1.38744C12.5754 2.24747 11.3962 3.46127 10.5777 4.91115C9.75923 6.36104 9.32929 7.9978 9.32955 9.66275H11.3287ZM14.3275 1.99919C14.2605 1.9979 14.1945 1.98334 14.1332 1.95634C14.0719 1.92935 14.0165 1.89046 13.9703 1.84192C13.9141 1.78548 13.8761 1.71355 13.861 1.63534C13.8557 1.59402 13.8584 1.47407 14.001 1.38744L15.0352 3.09874C15.7056 2.69357 15.9215 1.95121 15.8429 1.36745C15.7603 0.761025 15.2831 0 14.3275 0V1.99919ZM27.2689 14.6541C27.181 14.7967 27.061 14.7993 27.0197 14.794C26.9415 14.779 26.8696 14.7409 26.8131 14.6847C26.7646 14.6385 26.7257 14.5832 26.6987 14.5219C26.6717 14.4606 26.6572 14.3945 26.6559 14.3275H28.6551C28.6551 13.3719 27.894 12.8948 27.2876 12.8121C26.7038 12.7335 25.9615 12.9494 25.5563 13.6198L27.2689 14.6541Z" fill="var(--fill-0, white)"/>
</svg>
