<svg preserveAspectRatio="none" width="100%" height="100%" overflow="visible" style="display: block;" viewBox="0 0 17.8765 16.9586" fill="none" xmlns="http://www.w3.org/2000/svg">
<path id="Vector" fill-rule="evenodd" clip-rule="evenodd" d="M2.27611 0.727189C3.39169 -0.381978 5.22869 -0.184895 6.16277 1.06361L7.31961 2.60727C8.08044 3.62294 8.01261 5.04194 7.10969 5.93936L6.89152 6.15752C6.86678 6.24911 6.86427 6.34527 6.88419 6.43802C6.94194 6.81202 7.25452 7.60402 8.56352 8.90569C9.87252 10.2074 10.67 10.519 11.0495 10.5777C11.1451 10.5969 11.2439 10.5941 11.3383 10.5694L11.7123 10.1973C12.5153 9.39977 13.7473 9.25036 14.7409 9.79027L16.4918 10.7436C17.9924 11.5576 18.3709 13.5963 17.1426 14.8182L15.84 16.1125C15.4294 16.5204 14.8775 16.8605 14.2047 16.9238C12.5455 17.0787 8.67994 16.8807 4.61636 12.8409C0.824108 9.06977 0.0962748 5.78077 0.00369142 4.16011C-0.0421419 3.34061 0.344692 2.64761 0.837858 2.15811L2.27611 0.727189ZM5.06277 1.88769C4.59802 1.26711 3.73269 1.21761 3.24502 1.70252L1.80586 3.13252C1.50336 3.43319 1.35852 3.76502 1.37686 4.08219C1.45019 5.37011 2.03686 8.33736 5.58619 11.8665C9.30969 15.568 12.7481 15.6789 14.0773 15.5543C14.3486 15.5295 14.6181 15.3884 14.8702 15.1381L16.1719 13.8429C16.7017 13.3167 16.5853 12.3579 15.8354 11.9509L14.0846 10.9984C13.6006 10.7363 13.0341 10.8224 12.6821 11.1726L12.265 11.5879L11.7792 11.1002C12.265 11.5879 12.2641 11.5888 12.2632 11.5888L12.2623 11.5906L12.2595 11.5934L12.2531 11.5989L12.2394 11.6117C12.2007 11.6476 12.159 11.6801 12.1147 11.7089C12.0414 11.7574 11.9442 11.8115 11.8223 11.8564C11.5748 11.949 11.2466 11.9985 10.8414 11.9362C10.0467 11.8143 8.99344 11.2725 7.59369 9.88102C6.19486 8.48952 5.64852 7.44269 5.52569 6.64886C5.46244 6.24369 5.51286 5.91552 5.60636 5.66802C5.65782 5.52875 5.73149 5.39873 5.82452 5.28302L5.85386 5.25094L5.86669 5.23719L5.87219 5.23169L5.87494 5.22894L5.87677 5.22711L6.14077 4.96494C6.53311 4.57352 6.58811 3.92544 6.21869 3.43136L5.06277 1.88769Z" fill="var(--fill-0, #1C8339)"/>
</svg>
