<svg preserveAspectRatio="none" width="100%" height="100%" overflow="visible" style="display: block;" viewBox="0 0 18.2417 18.3334" fill="none" xmlns="http://www.w3.org/2000/svg">
<path id="Vector" d="M15.5833 2.66755C14.7428 1.81881 13.7418 1.14585 12.6386 0.687882C11.5353 0.229911 10.352 -0.0039079 9.1575 4.94039e-05C4.1525 4.94039e-05 0.0733335 4.07922 0.0733335 9.08422C0.0733335 10.6884 0.495 12.2467 1.28333 13.6217L0 18.3334L4.8125 17.0684C6.14167 17.7925 7.63583 18.1775 9.1575 18.1775C14.1625 18.1775 18.2417 14.0984 18.2417 9.09338C18.2417 6.66422 17.2975 4.38172 15.5833 2.66755ZM9.1575 16.6375C7.80083 16.6375 6.47167 16.2709 5.3075 15.5834L5.0325 15.4184L2.1725 16.17L2.93333 13.3834L2.75 13.0992C1.99609 11.8957 1.59585 10.5044 1.595 9.08422C1.595 4.92255 4.98667 1.53088 9.14833 1.53088C11.165 1.53088 13.0625 2.31922 14.4833 3.74922C15.187 4.44942 15.7446 5.28238 16.1238 6.19977C16.5031 7.11715 16.6963 8.10071 16.6925 9.09338C16.7108 13.255 13.3192 16.6375 9.1575 16.6375ZM13.3008 10.9909C13.0717 10.8809 11.9533 10.3309 11.7517 10.2484C11.5408 10.175 11.3942 10.1384 11.2383 10.3584C11.0825 10.5875 10.6517 11.1009 10.5233 11.2475C10.395 11.4034 10.2575 11.4217 10.0283 11.3025C9.79917 11.1925 9.06583 10.945 8.20417 10.175C7.52583 9.57005 7.07667 8.82755 6.93917 8.59838C6.81083 8.36922 6.92083 8.25005 7.04 8.13088C7.14083 8.03005 7.26917 7.86505 7.37917 7.73672C7.48917 7.60838 7.535 7.50755 7.60833 7.36088C7.68167 7.20505 7.645 7.07672 7.59 6.96672C7.535 6.85672 7.07667 5.73838 6.89333 5.28005C6.71 4.84005 6.5175 4.89505 6.38 4.88588H5.94C5.78417 4.88588 5.54583 4.94088 5.335 5.17005C5.13333 5.39922 4.54667 5.94922 4.54667 7.06755C4.54667 8.18588 5.3625 9.26755 5.4725 9.41422C5.5825 9.57005 7.07667 11.8617 9.35 12.8425C9.89083 13.0809 10.3125 13.2184 10.6425 13.3192C11.1833 13.4934 11.6783 13.4659 12.0725 13.4109C12.5125 13.3467 13.42 12.8609 13.6033 12.3292C13.7958 11.7975 13.7958 11.3484 13.7317 11.2475C13.6675 11.1467 13.53 11.1009 13.3008 10.9909Z" fill="var(--fill-0, white)"/>
</svg>
