<svg preserveAspectRatio="none" width="100%" height="100%" overflow="visible" style="display: block;" viewBox="0 0 23.9962 27.7411" fill="none" xmlns="http://www.w3.org/2000/svg">
<g id="Group">
<g id="Vector">
</g>
<path id="Vector_2" fill-rule="evenodd" clip-rule="evenodd" d="M12.3076 1.45671e-07C14.7358 -0.000421808 17.0745 0.915846 18.8562 2.56554C20.6379 4.21524 21.731 6.47674 21.9171 8.89773L22.6421 18.3246C23.1433 18.7664 23.5257 19.3268 23.7545 19.9545C23.9833 20.5823 24.0511 21.2573 23.9518 21.918C23.8525 22.5787 23.5892 23.204 23.186 23.7367C22.7828 24.2695 22.2525 24.6927 21.6436 24.9677C21.0347 25.2427 20.3666 25.3607 19.7004 25.311C19.0341 25.2613 18.3909 25.0454 17.8296 24.6831C17.2682 24.3208 16.8066 23.8236 16.4869 23.2369C16.1672 22.6502 15.9996 21.9928 15.9995 21.3247L4.00434 21.326C3.06009 21.3274 2.14581 20.9946 1.42343 20.3865C0.701049 19.7784 0.217194 18.9343 0.0575604 18.0036C-0.102073 17.0729 0.0728168 16.1158 0.551255 15.3017C1.02969 14.4877 1.7808 13.8692 2.67155 13.5558V9.63743C2.67138 8.37188 2.92049 7.1187 3.40467 5.94944C3.88885 4.78019 4.59862 3.71775 5.49343 2.82282C6.38824 1.92788 7.45057 1.21797 8.61976 0.733632C9.78896 0.249289 11.0421 1.33566e-07 12.3076 1.45671e-07ZM19.9979 19.9919C19.6444 19.9919 19.3054 20.1323 19.0554 20.3823C18.8055 20.6322 18.6651 20.9712 18.6651 21.3247C18.6651 21.6782 18.8055 22.0172 19.0554 22.2671C19.3054 22.5171 19.6444 22.6575 19.9979 22.6575C20.3513 22.6575 20.6903 22.5171 20.9403 22.2671C21.1902 22.0172 21.3307 21.6782 21.3307 21.3247C21.3307 20.9712 21.1902 20.6322 20.9403 20.3823C20.6903 20.1323 20.3513 19.9919 19.9979 19.9919ZM16.3727 15.9935H4.00434C3.66464 15.9939 3.3379 16.124 3.09089 16.3572C2.84388 16.5904 2.69523 16.9091 2.67532 17.2482C2.65541 17.5873 2.76575 17.9212 2.98378 18.1817C3.20181 18.4422 3.51108 18.6097 3.84841 18.6498L4.00434 18.6591H17.0177L17.1977 18.4712L16.3727 15.9935ZM12.3076 2.66559C10.5085 2.66544 8.77891 3.36098 7.48077 4.60672C6.18262 5.85245 5.41643 7.55189 5.34247 9.34954L5.33714 9.63609V13.3279H15.4837L14.7347 11.0835C14.6285 10.7612 14.6492 10.4106 14.7926 10.1031C14.936 9.79558 15.1913 9.55433 15.5064 9.42855C15.8216 9.30277 16.1728 9.30192 16.4886 9.42617C16.8043 9.55042 17.0608 9.79042 17.2057 10.0972L17.2643 10.2412L19.6313 17.3423L19.8912 17.3276L19.2582 9.10164C19.1235 7.35055 18.3328 5.71482 17.0441 4.52155C15.7555 3.32829 14.0639 2.66545 12.3076 2.66559Z" fill="var(--fill-0, white)"/>
</g>
</svg>
