<svg preserveAspectRatio="none" width="100%" height="100%" overflow="visible" style="display: block;" viewBox="0 0 20.1411 19.2441" fill="none" xmlns="http://www.w3.org/2000/svg">
<path id="Vector" d="M6.63338 5.80981L0.78505 6.65772L0.681467 6.67881C0.524661 6.72043 0.381712 6.80293 0.267218 6.91787C0.152724 7.03282 0.0707866 7.17609 0.0297737 7.33305C-0.0112392 7.49002 -0.00985827 7.65506 0.0337754 7.81132C0.077409 7.96758 0.161732 8.10946 0.278133 8.22247L4.51497 12.3466L3.5158 18.172L3.50388 18.2728C3.49428 18.435 3.52796 18.5968 3.60146 18.7417C3.67496 18.8866 3.78565 19.0093 3.92219 19.0974C4.05873 19.1854 4.21621 19.2356 4.37852 19.2427C4.54082 19.2499 4.70212 19.2138 4.84588 19.1381L10.0764 16.3881L15.295 19.1381L15.3866 19.1803C15.5379 19.2399 15.7024 19.2582 15.8631 19.2333C16.0238 19.2083 16.1749 19.1411 16.3011 19.0385C16.4272 18.9358 16.5238 18.8015 16.5809 18.6492C16.638 18.497 16.6535 18.3322 16.626 18.172L15.6259 12.3466L19.8646 8.22156L19.936 8.14364C20.0382 8.01784 20.1052 7.86722 20.1301 7.70712C20.1551 7.54701 20.1372 7.38315 20.0782 7.23223C20.0192 7.0813 19.9213 6.9487 19.7944 6.84794C19.6675 6.74718 19.5162 6.68186 19.3558 6.65864L13.5075 5.80981L10.8931 0.511472C10.8175 0.357962 10.7004 0.228694 10.5551 0.138301C10.4097 0.0479081 10.242 0 10.0709 0C9.89975 0 9.73203 0.0479081 9.58671 0.138301C9.44139 0.228694 9.32428 0.357962 9.24863 0.511472L6.63338 5.80981Z" fill="var(--fill-0, #FFBB00)"/>
</svg>
