<svg preserveAspectRatio="none" width="100%" height="100%" overflow="visible" style="display: block;" viewBox="0 0 25.0822 25.0815" fill="none" xmlns="http://www.w3.org/2000/svg">
<g id="Group">
<path id="Vector" d="M13.7073 2.04391C13.159 2.04235 12.5758 2.04158 11.9575 2.04158C6.73355 2.04158 4.12042 2.04158 2.49771 3.66428C0.875001 5.28699 0.875001 7.89896 0.875001 13.1241C0.875001 18.348 0.875001 20.9611 2.49771 22.5838C4.12042 24.2065 6.73238 24.2065 11.9575 24.2065C17.1814 24.2065 19.7945 24.2065 21.4172 22.5838C23.04 20.9611 23.04 18.3491 23.04 13.1241C23.04 12.5058 23.0392 11.9225 23.0376 11.3742" stroke="var(--stroke-0, #1C8339)" stroke-width="1.75" stroke-linecap="round"/>
<path id="Vector_2" d="M20.1238 0.875L20.4248 1.68817C20.8192 2.7545 21.0163 3.28767 21.4048 3.67617C21.7945 4.06583 22.3277 4.263 23.394 4.65733L24.2072 4.95833L23.394 5.25933C22.3277 5.65367 21.7945 5.85083 21.406 6.23933C21.0163 6.629 20.8192 7.16217 20.4248 8.2285L20.1238 9.04167L19.8228 8.2285C19.4285 7.16217 19.2313 6.629 18.8428 6.2405C18.4532 5.85083 17.92 5.65367 16.8537 5.25933L16.0405 4.95833L16.8537 4.65733C17.92 4.263 18.4532 4.06583 18.8417 3.67733C19.2313 3.28767 19.4285 2.7545 19.8228 1.68817L20.1238 0.875Z" stroke="var(--stroke-0, #1C8339)" stroke-width="1.75" stroke-linejoin="round"/>
<path id="Vector_3" d="M6.70788 18.9578C9.42855 16.1088 14.458 15.9747 17.2079 18.9578M14.8687 10.2078C14.8687 11.8178 13.562 13.1245 11.9485 13.1245C11.5651 13.1251 11.1854 13.0501 10.831 12.9038C10.4766 12.7575 10.1545 12.5428 9.88314 12.2719C9.6118 12.001 9.39655 11.6792 9.24968 11.3251C9.10281 10.9709 9.02722 10.5913 9.02722 10.2078C9.02722 8.59784 10.3339 7.29117 11.9485 7.29117C12.3319 7.29071 12.7115 7.36581 13.0658 7.51219C13.4201 7.65856 13.742 7.87332 14.0132 8.14421C14.2844 8.41509 14.4996 8.73678 14.6464 9.09087C14.7932 9.44496 14.8687 9.82452 14.8687 10.2078Z" stroke="var(--stroke-0, #1C8339)" stroke-width="1.75" stroke-linecap="round"/>
</g>
</svg>
