<svg preserveAspectRatio="none" width="100%" height="100%" overflow="visible" style="display: block;" viewBox="0 0 20.9984 20.9984" fill="none" xmlns="http://www.w3.org/2000/svg">
<path id="Vector" d="M19.2485 0H1.74986C1.28598 0.000694259 0.841303 0.185277 0.51329 0.51329C0.185277 0.841303 0.000694259 1.28598 0 1.74986V19.2485C0.000694259 19.7124 0.185277 20.1571 0.51329 20.4851C0.841303 20.8131 1.28598 20.9977 1.74986 20.9984H19.2485C19.7124 20.9977 20.1571 20.8131 20.4851 20.4851C20.8131 20.1571 20.9977 19.7124 20.9984 19.2485V1.74986C20.9977 1.28598 20.8131 0.841303 20.4851 0.51329C20.1571 0.185277 19.7124 0.000694259 19.2485 0ZM12.2491 1.74986V5.24959H8.74932V1.74986H12.2491ZM1.74986 19.2485V1.74986H6.99946V6.99946H13.9989V1.74986H19.2485L19.2494 19.2485H1.74986Z" fill="var(--fill-0, #1C8339)"/>
</svg>
