<svg preserveAspectRatio="none" width="100%" height="100%" overflow="visible" style="display: block;" viewBox="0 0 27.9721 27.9738" fill="none" xmlns="http://www.w3.org/2000/svg">
<path id="Vector" fill-rule="evenodd" clip-rule="evenodd" d="M11.3901 1.2479C12.3245 0.561957 12.7918 0.218983 13.2975 0.0859934C13.7494 -0.0286645 14.2227 -0.0286645 14.6746 0.0859934C15.1856 0.218983 15.6545 0.561957 16.582 1.2479L17.7666 2.11759C18.0904 2.35557 18.2531 2.47456 18.4281 2.5673C18.5844 2.64896 18.7471 2.71662 18.9163 2.77029C19.107 2.82803 19.3048 2.85778 19.702 2.91902L21.1544 3.14126C22.3005 3.31624 22.8727 3.40549 23.3242 3.67322C23.7267 3.90945 24.0626 4.24542 24.2989 4.64789C24.5666 5.10286 24.6541 5.67681 24.8308 6.81772L25.0531 8.27011C25.1143 8.66733 25.1441 8.86681 25.2018 9.05755C25.2543 9.2267 25.322 9.38886 25.4048 9.54401C25.4993 9.719 25.6165 9.88174 25.8545 10.2055L26.7242 11.3901C27.4101 12.3245 27.7531 12.7918 27.8861 13.2975C28.0007 13.7494 28.0007 14.2227 27.8861 14.6746C27.7549 15.1856 27.4101 15.6545 26.7242 16.582L25.8545 17.7666C25.688 17.9754 25.5376 18.1965 25.4048 18.4281C25.3218 18.5846 25.2538 18.7487 25.2018 18.918C25.1441 19.107 25.1143 19.3048 25.0531 19.702L24.8308 21.1544C24.6558 22.3005 24.5666 22.8727 24.2989 23.3242C24.0626 23.7267 23.7267 24.0626 23.3242 24.2989C22.8692 24.5666 22.2953 24.6541 21.1544 24.8308L19.702 25.0531C19.4366 25.0832 19.174 25.1335 18.9163 25.2035C18.7471 25.2549 18.5844 25.3225 18.4281 25.4065C18.2531 25.4993 18.0904 25.6165 17.7666 25.8562L16.582 26.7259C15.6475 27.4119 15.1803 27.7549 14.6746 27.8878C14.2227 28.0025 13.7494 28.0025 13.2975 27.8878C12.7865 27.7549 12.3175 27.4119 11.3901 26.7259L10.2055 25.8562C9.99674 25.6897 9.77561 25.5394 9.54401 25.4065C9.38804 25.3236 9.22458 25.2557 9.0558 25.2035C8.79811 25.1335 8.53545 25.0832 8.27011 25.0531L6.81772 24.8308C5.67156 24.6558 5.09761 24.5683 4.64789 24.2989C4.24685 24.0603 3.9118 23.7252 3.67322 23.3242C3.40549 22.8692 3.31799 22.2953 3.14126 21.1544L2.91902 19.702C2.85778 19.3048 2.82803 19.107 2.77029 18.9163C2.71923 18.7471 2.65122 18.5836 2.5673 18.4281C2.43444 18.1965 2.28409 17.9754 2.11759 17.7666L1.2479 16.582C0.561957 15.6475 0.218983 15.1821 0.0859934 14.6746C-0.0286645 14.2227 -0.0286645 13.7494 0.0859934 13.2975C0.217233 12.7865 0.561957 12.3175 1.2479 11.3901L2.11759 10.2055C2.35557 9.88174 2.47456 9.719 2.5673 9.54401C2.64896 9.38886 2.71662 9.22612 2.77029 9.0558C2.82803 8.86506 2.85778 8.66733 2.91902 8.27011L3.14126 6.81772C3.31624 5.67156 3.40549 5.09761 3.67322 4.64789C3.90945 4.24542 4.24542 3.91295 4.64789 3.67322C5.10286 3.40549 5.67681 3.31799 6.81772 3.14126L8.27011 2.91902C8.66733 2.85953 8.86681 2.82803 9.0558 2.77029C9.22495 2.71779 9.38769 2.65013 9.54401 2.5673C9.719 2.47456 9.88174 2.35557 10.2055 2.11759L11.3901 1.2479ZM15.5548 2.65829L16.7989 3.57172C17.0632 3.76596 17.3239 3.95844 17.6144 4.11243C17.871 4.24892 18.137 4.35916 18.4123 4.44316C18.727 4.53019 19.0475 4.59509 19.3713 4.63739L20.8971 4.87187C22.1938 5.07136 22.3548 5.1256 22.4493 5.1816C22.5974 5.27026 22.7152 5.38808 22.8027 5.53507C22.8587 5.62956 22.9147 5.79055 23.1125 7.0872L23.3469 8.61308C23.3892 8.93686 23.4541 9.25729 23.5412 9.57201C23.6263 9.84966 23.7366 10.1156 23.8719 10.3699C24.0259 10.6604 24.2184 10.9212 24.4126 11.1854L25.326 12.4295C26.103 13.4865 26.1765 13.6387 26.2045 13.7472C26.2448 13.9116 26.2448 14.0833 26.2045 14.2476C26.1765 14.3544 26.103 14.5066 25.326 15.5653L24.4126 16.8094C24.2184 17.0737 24.0259 17.3344 23.8719 17.6249C23.7366 17.8798 23.6259 18.147 23.5412 18.4228C23.4541 18.7375 23.3892 19.058 23.3469 19.3817L23.1125 20.9076C22.913 22.2043 22.8587 22.3653 22.8027 22.4598C22.7151 22.6043 22.5938 22.7256 22.4493 22.8132C22.3548 22.8692 22.1938 22.9252 20.8971 23.123L19.3713 23.3574C19.0475 23.3997 18.727 23.4646 18.4123 23.5517C18.1365 23.6364 17.8693 23.7471 17.6144 23.8824C17.3239 24.0364 17.0632 24.2289 16.7989 24.4231L15.5548 25.3365C14.4979 26.1135 14.3456 26.187 14.2371 26.215C14.0728 26.2553 13.9011 26.2553 13.7367 26.215C13.6299 26.187 13.4777 26.1135 12.419 25.3365L11.1749 24.4231C10.916 24.2241 10.6435 24.0434 10.3594 23.8824C10.1046 23.7471 9.83738 23.6364 9.56151 23.5517C9.24679 23.4646 8.92637 23.3997 8.60258 23.3574L7.0767 23.123C5.78005 22.9235 5.61907 22.8692 5.52457 22.8132C5.38001 22.7256 5.25875 22.6043 5.1711 22.4598C5.1151 22.3653 5.05911 22.2043 4.86137 20.9076L4.62689 19.3817C4.58459 19.058 4.51969 18.7375 4.43266 18.4228C4.34797 18.147 4.23723 17.8798 4.10193 17.6249C3.94794 17.3344 3.75546 17.0737 3.56122 16.8094L2.6478 15.5653C1.87086 14.5084 1.79736 14.3561 1.76936 14.2476C1.72902 14.0833 1.72902 13.9116 1.76936 13.7472C1.79736 13.6404 1.87086 13.4882 2.6478 12.4295L3.56122 11.1854C3.75546 10.9212 3.94794 10.6604 4.10193 10.3699C4.23726 10.1133 4.3475 9.84732 4.43266 9.57201C4.51969 9.25729 4.58459 8.93686 4.62689 8.61308L4.86137 7.0872C5.06086 5.79055 5.1151 5.62956 5.1711 5.53507C5.25875 5.39051 5.38001 5.26925 5.52457 5.1816C5.61907 5.1256 5.78005 5.06961 7.0767 4.87187L8.60258 4.63739C8.92637 4.59509 9.24679 4.53019 9.56151 4.44316C9.83916 4.358 10.1051 4.24775 10.3594 4.11243C10.6499 3.95844 10.9107 3.76596 11.1749 3.57172L12.419 2.65829C13.476 1.88135 13.6282 1.80786 13.7367 1.77986C13.9011 1.73952 14.0728 1.73952 14.2371 1.77986C14.3439 1.80786 14.4961 1.88135 15.5548 2.65829Z" fill="var(--fill-0, #1C8339)"/>
</svg>
