<svg preserveAspectRatio="none" width="100%" height="100%" overflow="visible" style="display: block;" viewBox="0 0 25.0815 21.5823" fill="none" xmlns="http://www.w3.org/2000/svg">
<g id="Group">
<path id="Vector" d="M6.70788 7.87446L12.2725 2.89901C13.7843 1.54928 14.5391 0.875 15.4572 0.875C16.3753 0.875 17.1312 1.54928 18.642 2.89901L24.2065 7.87446M8.45775 6.70788V20.7068M22.4567 20.7068V6.70788" stroke="var(--stroke-0, #1C8339)" stroke-width="1.75" stroke-linecap="round" stroke-linejoin="round"/>
<path id="Vector_2" d="M2.625 13.7077C3.5915 13.7077 4.375 12.663 4.375 11.3744C4.375 10.0857 3.5915 9.04104 2.625 9.04104C1.6585 9.04104 0.875 10.0857 0.875 11.3744C0.875 12.663 1.6585 13.7077 2.625 13.7077Z" stroke="var(--stroke-0, #1C8339)" stroke-width="1.75"/>
<path id="Vector_3" d="M2.62486 13.7073V20.7073" stroke="var(--stroke-0, #1C8339)" stroke-width="1.75" stroke-linecap="round"/>
<path id="Vector_4" d="M0.875 20.7068H24.2065M12.5408 20.7068V16.0405C12.5408 14.9404 12.5408 14.391 12.8826 14.0491C13.2244 13.7073 13.7738 13.7073 14.8739 13.7073H16.0405C17.1406 13.7073 17.69 13.7073 18.0318 14.0491C18.3736 14.391 18.3736 14.9404 18.3736 16.0405V20.7068M14.2906 10.2076H16.6238M14.2906 6.70788H16.6238" stroke="var(--stroke-0, #1C8339)" stroke-width="1.75" stroke-linecap="round" stroke-linejoin="round"/>
</g>
</svg>
