<svg preserveAspectRatio="none" width="100%" height="100%" overflow="visible" style="display: block;" viewBox="0 0 13.1145 10.489" fill="none" xmlns="http://www.w3.org/2000/svg">
<path id="Vector" d="M12.8436 1.96836C12.9449 1.84483 13.0204 1.70225 13.0656 1.54905C13.1108 1.39584 13.1249 1.23513 13.1069 1.0764C13.089 0.917678 13.0394 0.764159 12.9611 0.624921C12.8828 0.485683 12.7774 0.363551 12.6511 0.265743C12.3942 0.064767 12.069 -0.0279477 11.7448 0.00735352C11.4205 0.0426547 11.1229 0.203181 10.9153 0.454729L5.12321 7.55918L2.02595 5.17936C1.77294 4.97345 1.44951 4.87449 1.1246 4.90358C0.799685 4.93267 0.498983 5.08751 0.28658 5.3351C0.182811 5.45653 0.104433 5.59752 0.0560798 5.74976C0.00772642 5.90199 -0.00962196 6.06237 0.00505959 6.22142C0.0197411 6.38047 0.0661551 6.53496 0.141558 6.67577C0.216962 6.81658 0.319825 6.94084 0.444069 7.04122L4.50375 10.2085C4.76011 10.417 5.08856 10.5156 5.41739 10.4829C5.74622 10.4501 6.04873 10.2885 6.25887 10.0335L12.8384 1.94911L12.8436 1.96836Z" fill="var(--fill-0, #1C8339)"/>
</svg>
