<svg preserveAspectRatio="none" width="100%" height="100%" overflow="visible" style="display: block;" viewBox="0 0 27.7367 27.6337" fill="none" xmlns="http://www.w3.org/2000/svg">
<g id="Group">
<path id="Vector" d="M20.8003 17.7495C22.6403 15.9095 23.674 13.4138 23.674 10.8116C23.674 8.20942 22.6403 5.71379 20.8003 3.87376C18.9602 2.03372 16.4646 1 13.8624 1C11.2602 1 8.76456 2.03372 6.92453 3.87376C5.08449 5.71379 4.05077 8.20942 4.05077 10.8116C4.05077 13.4138 5.08449 15.9095 6.92453 17.7495C8.76456 19.5895 11.2602 20.6232 13.8624 20.6232C16.4646 20.6232 18.9602 19.5895 20.8003 17.7495Z" stroke="var(--stroke-0, #1C8339)" stroke-width="2" stroke-linecap="round" stroke-linejoin="round"/>
<path id="Vector_2" d="M5.36337 15.6243L1 23.183L5.71378 21.9199L6.97884 26.6337L10.7641 20.0768M22.3733 15.6243L26.7367 23.183L22.021 21.9199L20.7579 26.6337L16.9726 20.0768M14.2643 5.48405L15.6165 8.20423C15.6458 8.27334 15.6934 8.33321 15.754 8.37747C15.8147 8.42174 15.8862 8.44876 15.9609 8.45565L18.9642 8.911C19.0502 8.92198 19.1312 8.95726 19.1978 9.01269C19.2644 9.06812 19.3138 9.1414 19.3402 9.22392C19.3666 9.30645 19.3689 9.39479 19.3468 9.47858C19.3248 9.56237 19.2793 9.63813 19.2157 9.69696L16.9964 11.8034C16.9631 11.8662 16.9457 11.9362 16.9457 12.0073C16.9457 12.0784 16.9631 12.1484 16.9964 12.2112L17.422 15.1967C17.4405 15.2832 17.4333 15.3732 17.4015 15.4558C17.3696 15.5383 17.3144 15.6098 17.2426 15.6614C17.1708 15.7131 17.0855 15.7427 16.9971 15.7466C16.9087 15.7506 16.8211 15.7287 16.7449 15.6837L14.0723 14.2702C14.0032 14.239 13.9283 14.2229 13.8525 14.2229C13.7767 14.2229 13.7018 14.239 13.6328 14.2702L10.9601 15.6837C10.884 15.7275 10.7969 15.7484 10.7092 15.7439C10.6216 15.7393 10.5371 15.7095 10.4659 15.658C10.3948 15.6066 10.3401 15.5356 10.3083 15.4538C10.2766 15.3719 10.2692 15.2827 10.287 15.1967L10.7899 12.2112C10.8117 12.142 10.8158 12.0685 10.802 11.9973C10.7882 11.926 10.7568 11.8594 10.7107 11.8034L8.49532 9.67914C8.43579 9.61959 8.39393 9.54471 8.3744 9.46281C8.35487 9.38091 8.35843 9.29519 8.38468 9.21519C8.41094 9.13519 8.45886 9.06403 8.52313 9.00963C8.5874 8.95523 8.66549 8.91972 8.74873 8.90704L11.75 8.47149C11.8248 8.4646 11.8963 8.43758 11.957 8.39331C12.0176 8.34904 12.0651 8.28917 12.0945 8.22006L13.4467 5.49989C13.4827 5.42269 13.5396 5.35712 13.611 5.31066C13.6824 5.26419 13.7654 5.23868 13.8505 5.23703C13.9357 5.23538 14.0196 5.25766 14.0928 5.30132C14.1659 5.34499 14.2253 5.4083 14.2643 5.48405Z" stroke="var(--stroke-0, #1C8339)" stroke-width="2" stroke-linecap="round" stroke-linejoin="round"/>
</g>
</svg>
